<svg id="Icon_-_IDS_2" data-name="Icon - IDS 2" xmlns="http://www.w3.org/2000/svg" width="44.666" height="60.196" viewBox="0 0 44.666 60.196">
  <rect id="Rectangle_2473" data-name="Rectangle 2473" width="15.531" height="1.941" transform="translate(14.574 52.43)" fill="none"/>
  <path id="Path_6757" data-name="Path 6757" d="M8.322,26.594H19.97a1.941,1.941,0,0,0,1.941-1.941H6.38a1.941,1.941,0,0,0,1.941,1.941Z" transform="translate(8.194 31.66)" fill="none"/>
  <path id="Path_6758" data-name="Path 6758" d="M6.129,22.118a3.971,3.971,0,1,1,7.1,0l-.04.079h7.075V13.46a.971.971,0,0,1,1.4-.869l1.484.742a2.028,2.028,0,1,0,0-3.629l-1.484.742a.971.971,0,0,1-1.4-.869V.867c-.454.021-.906.052-1.359.1A20.391,20.391,0,0,0,.958,19.113,20.9,20.9,0,0,0,.884,22.2H6.169l-.04-.079Z" transform="translate(1.102 1.113)" fill="none"/>
  <path id="Path_6759" data-name="Path 6759" d="M22.829,6.029A20.12,20.12,0,0,0,10.2.873V8l.079-.04a3.97,3.97,0,1,1,0,7.1l-.079-.04v7.167H29.589c.015-.322.03-.646.03-.971a20.416,20.416,0,0,0-6.79-15.188Z" transform="translate(13.105 1.122)" fill="none"/>
  <path id="Path_6760" data-name="Path 6760" d="M11.065,14.227a.971.971,0,0,1-.434-1.3l.742-1.484a2.029,2.029,0,1,0-3.629,0l.741,1.484a.971.971,0,0,1-.868,1.4H.954A20.349,20.349,0,0,0,10,28.5a.971.971,0,0,1,.441.814V38.6a.966.966,0,0,0,.924.961V16.274H30.28V39.567h.542a.971.971,0,0,0,.971-.971V29.315a.97.97,0,0,1,.441-.814,20.329,20.329,0,0,0,9.051-14.172H11.5a.972.972,0,0,1-.433-.1Z" transform="translate(1.225 10.922)" fill="none"/>
  <path id="Path_6761" data-name="Path 6761" d="M40.754,9.716A22.328,22.328,0,1,0,9.72,40.753v8.765a2.912,2.912,0,0,0,2.912,2.912v3.883A3.883,3.883,0,0,0,16.515,60.2H28.164a3.883,3.883,0,0,0,3.883-3.883V52.43a2.912,2.912,0,0,0,2.912-2.912V40.753A22.326,22.326,0,0,0,40.754,9.716ZM2.061,20.227A20.391,20.391,0,0,1,20.01,2.083c.453-.05.9-.081,1.359-.1v8.71a.971.971,0,0,0,1.4.869l1.484-.742a2.028,2.028,0,1,1,0,3.629L22.773,13.7a.971.971,0,0,0-1.4.869V23.31H14.294l.04-.079a3.971,3.971,0,1,0-7.1,0l.04.079H1.987a20.9,20.9,0,0,1,.074-3.083Zm26.1,38.028H16.515a1.941,1.941,0,0,1-1.941-1.941H30.1a1.941,1.941,0,0,1-1.941,1.941ZM30.1,54.372H14.574V52.43H30.1Zm3.353-14.949a.97.97,0,0,0-.441.814v9.282a.971.971,0,0,1-.971.971H12.586V50.48a.966.966,0,0,1-.924-.961V40.235a.971.971,0,0,0-.441-.814,20.35,20.35,0,0,1-9.042-14.17H8.841a.971.971,0,0,0,.868-1.4l-.741-1.484a2.029,2.029,0,1,1,3.629,0l-.742,1.484a.971.971,0,0,0,.868,1.4H42.509a20.329,20.329,0,0,1-9.051,14.172ZM23.31,23.31V16.143l.079.04a3.97,3.97,0,1,0,0-7.1l-.079.04V2A20.12,20.12,0,0,1,35.934,7.15a20.416,20.416,0,0,1,6.79,15.188c0,.325-.015.648-.03.971H23.31Z" transform="translate(0 0)" fill="#05297a"/>
  <path id="Path_6762" data-name="Path 6762" d="M19.545,20.52a3.883,3.883,0,1,0-3.883-3.883v1.941H13.721V16.637A3.883,3.883,0,1,0,9.838,20.52h1.941V34.11h1.941V20.52h1.941V34.11H17.6V20.52h1.941ZM17.6,16.637a1.941,1.941,0,1,1,1.941,1.941H17.6Zm-5.824,1.941H9.838a1.941,1.941,0,1,1,1.941-1.941Z" transform="translate(7.648 16.379)" fill="#05297a"/>
  <path id="Path_6763" data-name="Path 6763" d="M5.51,22.109h.047c-.017,0-.03-.008-.047-.009Z" transform="translate(7.076 28.381)" fill="#05297a"/>
</svg>
