<svg id="Icon_-_IDS_3" data-name="Icon - IDS 3" xmlns="http://www.w3.org/2000/svg" width="66.894" height="65.136" viewBox="0 0 66.894 65.136">
  <g id="a" transform="translate(0)">
    <g id="layer1" transform="translate(0)">
      <path id="_06.Meeting" data-name="06.Meeting" d="M28.252,5.557a16.165,16.165,0,0,0-5.332,3.725,8.742,8.742,0,0,0-.821,1.087A28.368,28.368,0,0,0,4.64,41.669,7.441,7.441,0,0,0,.82,47.806,15.32,15.32,0,0,0,1.89,54.1c-.125.1-.247.208-.363.322a5.01,5.01,0,0,0,0,7.2,5.345,5.345,0,0,0,7.392-.006c.115-.112.223-.227.325-.346A16.559,16.559,0,0,0,15.713,62.3a8.634,8.634,0,0,0,3.3-.878,29.93,29.93,0,0,0,28.884,0,8.146,8.146,0,0,0,3.81.909,17.319,17.319,0,0,0,5.952-1.066c.1.119.21.234.325.346a5.345,5.345,0,0,0,7.392.006,5.011,5.011,0,0,0,0-7.2C65.251,54.3,65.13,54.2,65,54.1a15.32,15.32,0,0,0,1.07-6.289,7.433,7.433,0,0,0-3.824-6.14C64.659,28.6,57.6,15.7,44.82,10.389a9.018,9.018,0,0,0-.843-1.111,16.531,16.531,0,0,0-5.318-3.717,5.215,5.215,0,1,0-10.408,0Zm5.2-3.524A3.054,3.054,0,1,1,30.32,5.09,3.118,3.118,0,0,1,33.447,2.033Zm-4.575,5.5a5.284,5.284,0,0,0,9.156,0,14.091,14.091,0,0,1,4.365,3.073,5.218,5.218,0,0,1,1.29,5.243l-1.488,5.406a1.545,1.545,0,0,1-1.919,1.079,1.5,1.5,0,0,1-1.109-1.868l1.217-4.425a1,1,0,0,0-.1-.771l-.739-1.248a1.061,1.061,0,0,0-1.429-.372,1,1,0,0,0-.382,1.389l.523.883-1.1,4.017A3.566,3.566,0,0,0,39.735,24.3a3.683,3.683,0,0,0,4.479-2.518L45.7,16.376a7.391,7.391,0,0,0,.171-3.268A26.268,26.268,0,0,1,60.319,40.575L57.159,38.8a3.726,3.726,0,0,0-5,1.3A3.523,3.523,0,0,0,53.5,44.968l3.7,2.081.272.982a1.051,1.051,0,0,0,1.28.722,1.016,1.016,0,0,0,.739-1.248l-.384-1.391a1.019,1.019,0,0,0-.486-.616L54.548,43.2a1.478,1.478,0,0,1-.574-2.083,1.562,1.562,0,0,1,2.139-.559l4.979,2.8a5.394,5.394,0,0,1,2.9,4.6,13.4,13.4,0,0,1-.855,5.176,5.336,5.336,0,0,0-5.155,1.284,5,5,0,0,0-1.315,5.023,14.463,14.463,0,0,1-5.324.837,5.6,5.6,0,0,1-4.72-2.822L43.746,52.6a1.482,1.482,0,0,1,.572-2.087,1.563,1.563,0,0,1,2.139.562l2.352,3.969a1.04,1.04,0,0,0,.637.473l1.431.372a1.048,1.048,0,0,0,1.276-.724,1.015,1.015,0,0,0-.743-1.242l-1-.266-2.139-3.6a3.721,3.721,0,0,0-4.991-1.3,3.529,3.529,0,0,0-1.343,4.868l2.876,4.85a7.879,7.879,0,0,0,1.245,1.6,27.822,27.822,0,0,1-25.217,0,7.877,7.877,0,0,0,1.245-1.6l2.876-4.85a3.513,3.513,0,0,0-1.343-4.868,3.721,3.721,0,0,0-4.991,1.3l-2.139,3.6-1,.266a1.015,1.015,0,0,0-.743,1.242,1.048,1.048,0,0,0,1.276.724l1.431-.372a1.04,1.04,0,0,0,.637-.473l2.352-3.969a1.591,1.591,0,0,1,2.139-.563,1.5,1.5,0,0,1,.572,2.087l-2.874,4.85a5.607,5.607,0,0,1-4.72,2.822,14.461,14.461,0,0,1-5.324-.837,5,5,0,0,0-1.315-5.023A5.336,5.336,0,0,0,3.76,53.133,13.4,13.4,0,0,1,2.9,47.957a5.441,5.441,0,0,1,2.9-4.6l4.979-2.8a1.562,1.562,0,0,1,2.139.559,1.478,1.478,0,0,1-.574,2.083L8.273,45.5a1.019,1.019,0,0,0-.486.616L7.4,47.5a1.016,1.016,0,0,0,.739,1.248,1.051,1.051,0,0,0,1.28-.722l.272-.982,3.7-2.081A3.523,3.523,0,0,0,14.731,40.1a3.726,3.726,0,0,0-5-1.3L6.571,40.579A26.252,26.252,0,0,1,21,13.109a7.386,7.386,0,0,0,.194,3.265l1.488,5.408A3.686,3.686,0,0,0,27.163,24.3a3.561,3.561,0,0,0,2.585-4.357l-1.1-4.019.517-.879a1,1,0,0,0-.378-1.389,1.063,1.063,0,0,0-1.429.368l-.739,1.246a.993.993,0,0,0-.108.773l1.219,4.426a1.5,1.5,0,0,1-1.1,1.87A1.55,1.55,0,0,1,24.7,21.255l-1.488-5.408A5.364,5.364,0,0,1,24.5,10.6a14.109,14.109,0,0,1,4.371-3.075h0ZM7.436,55.856a2.977,2.977,0,0,1,0,4.313A3.182,3.182,0,0,1,3,60.178a2.984,2.984,0,0,1,0-4.319,3.183,3.183,0,0,1,4.432,0h0Zm52.022,0a3.2,3.2,0,0,1,4.432,0,2.983,2.983,0,0,1,0,4.319,3.181,3.181,0,0,1-4.436-.006,2.977,2.977,0,0,1,0-4.313Z" transform="translate(0)" fill="#05297a"/>
    </g>
  </g>
  <g id="Capa_2" data-name="Capa 2" transform="translate(20.902 26.457)">
    <g id="Group_2050" data-name="Group 2050">
      <path id="Path_6739" data-name="Path 6739" d="M176.964,205.58h-3.132v-1.014a3.12,3.12,0,0,0-3.14-3.059H158.153a3.12,3.12,0,0,0-3.14,3.059v12.206a1.049,1.049,0,0,0,1.79.722l3.856-3.771h.625v1.014a3.122,3.122,0,0,0,3.142,3.059h10.03l3.858,3.771a1.049,1.049,0,0,0,1.79-.721V208.63A3.113,3.113,0,0,0,176.964,205.58Zm-16.734,6.108a1.06,1.06,0,0,0-.741.3l-2.384,2.33v-9.751a1.014,1.014,0,0,1,1.049-1.022h12.539a1.014,1.014,0,0,1,1.049,1.022v6.1a1.014,1.014,0,0,1-1.049,1.022Zm17.786,6.7-2.384-2.33a1.06,1.06,0,0,0-.741-.3H164.427a1.014,1.014,0,0,1-1.049-1.022v-1.014h7.315a3.118,3.118,0,0,0,3.14-3.057v-3.051h3.132a1.01,1.01,0,0,1,1.051,1.014Z" transform="translate(-155.014 -201.508)" fill="#05297a"/>
      <ellipse id="Ellipse_84" data-name="Ellipse 84" cx="1.018" cy="1.045" rx="1.018" ry="1.045" transform="translate(4.172 7.113) rotate(-89.377)" fill="#05297a"/>
      <ellipse id="Ellipse_85" data-name="Ellipse 85" cx="1.045" cy="1.018" rx="1.045" ry="1.018" transform="translate(8.364 5.088)" fill="#05297a"/>
      <ellipse id="Ellipse_86" data-name="Ellipse 86" cx="1.046" cy="1.018" rx="1.046" ry="1.018" transform="translate(12.534 5.099) rotate(-0.596)" fill="#05297a"/>
    </g>
  </g>
</svg>
