<svg id="Icon_-_IDS_1" data-name="Icon - IDS 1" xmlns="http://www.w3.org/2000/svg" width="61.787" height="61.787" viewBox="0 0 61.787 61.787">
  <path id="Path_6740" data-name="Path 6740" d="M8.761,33.972v2.06a3.093,3.093,0,0,0,3.089,3.089H24.208A3.093,3.093,0,0,0,27.3,36.031v-2.06a7.2,7.2,0,0,0-4-6.426,7.208,7.208,0,1,0-10.541,0,7.2,7.2,0,0,0-4,6.426ZM18.029,17.5a5.149,5.149,0,1,1-5.149,5.149A5.155,5.155,0,0,1,18.029,17.5ZM14.659,29.012a7.176,7.176,0,0,0,6.739,0,5.133,5.133,0,0,1,3.839,4.959v2.06a1.03,1.03,0,0,1-1.03,1.03H11.85a1.03,1.03,0,0,1-1.03-1.03v-2.06a5.133,5.133,0,0,1,3.839-4.959Z" transform="translate(12.865 22.666)" fill="#05297a"/>
  <path id="Path_6741" data-name="Path 6741" d="M3.089,39.121H15.447a3.093,3.093,0,0,0,3.089-3.089v-2.06a7.2,7.2,0,0,0-4-6.426A7.208,7.208,0,1,0,4,27.546a7.2,7.2,0,0,0-4,6.426v2.06a3.093,3.093,0,0,0,3.089,3.089ZM9.268,17.5a5.149,5.149,0,1,1-5.149,5.149A5.155,5.155,0,0,1,9.268,17.5ZM2.06,33.972A5.133,5.133,0,0,1,5.9,29.012a7.176,7.176,0,0,0,6.739,0,5.133,5.133,0,0,1,3.839,4.959v2.06a1.03,1.03,0,0,1-1.03,1.03H3.089a1.03,1.03,0,0,1-1.03-1.03v-2.06Z" transform="translate(0 22.666)" fill="#05297a"/>
  <path id="Path_6742" data-name="Path 6742" d="M32.06,27.546a7.208,7.208,0,1,0-10.541,0,7.2,7.2,0,0,0-4,6.426v2.06a3.093,3.093,0,0,0,3.089,3.089H32.968a3.093,3.093,0,0,0,3.089-3.089v-2.06a7.2,7.2,0,0,0-4-6.426h0ZM26.79,17.5a5.149,5.149,0,1,1-5.149,5.149A5.155,5.155,0,0,1,26.79,17.5ZM34,36.031a1.03,1.03,0,0,1-1.03,1.03H20.611a1.03,1.03,0,0,1-1.03-1.03v-2.06a5.133,5.133,0,0,1,3.839-4.959,7.176,7.176,0,0,0,6.739,0A5.133,5.133,0,0,1,34,33.972v2.06Z" transform="translate(25.729 22.666)" fill="#05297a"/>
  <path id="Path_6743" data-name="Path 6743" d="M27.3,18.536a7.2,7.2,0,0,0-4-6.426,7.208,7.208,0,1,0-10.541,0,7.2,7.2,0,0,0-4,6.426V20.6a3.093,3.093,0,0,0,3.089,3.089H24.208A3.093,3.093,0,0,0,27.3,20.6v-2.06ZM18.029,2.06A5.149,5.149,0,1,1,12.88,7.208,5.155,5.155,0,0,1,18.029,2.06ZM25.237,20.6a1.03,1.03,0,0,1-1.03,1.03H11.85a1.03,1.03,0,0,1-1.03-1.03v-2.06a5.133,5.133,0,0,1,3.839-4.959,7.176,7.176,0,0,0,6.739,0,5.133,5.133,0,0,1,3.839,4.959V20.6Z" transform="translate(12.865 0)" fill="#05297a"/>
  <path id="Path_6744" data-name="Path 6744" d="M14.353,10.43a1.029,1.029,0,0,0-1.03,1.03v5.752l-.3-.3a1.03,1.03,0,1,0-1.456,1.456l2.06,2.06a1.029,1.029,0,0,0,1.456,0l2.06-2.06a1.03,1.03,0,0,0-1.456-1.456l-.3.3V11.459a1.029,1.029,0,0,0-1.03-1.03h0Z" transform="translate(16.54 15.315)" fill="#05297a"/>
  <path id="Path_6745" data-name="Path 6745" d="M12.525,10.818a1.032,1.032,0,0,0-1.437.243L7.76,15.751l-.071-.419a1.03,1.03,0,1,0-2.031.344l.487,2.871a1.03,1.03,0,0,0,1.014.858,1.1,1.1,0,0,0,.173-.014L10.2,18.9a1.03,1.03,0,0,0-.344-2.031l-.42.071,3.329-4.691a1.032,1.032,0,0,0-.243-1.437v0Z" transform="translate(8.287 15.607)" fill="#05297a"/>
  <path id="Path_6746" data-name="Path 6746" d="M18.336,17.717A1.03,1.03,0,0,0,19.18,18.9l2.871.487a1.1,1.1,0,0,0,.173.014,1.03,1.03,0,0,0,1.014-.858l.487-2.871a1.03,1.03,0,1,0-2.031-.344l-.071.419-3.329-4.69a1.03,1.03,0,1,0-1.68,1.194l3.329,4.691-.42-.071a1.034,1.034,0,0,0-1.187.843v0Z" transform="translate(24.117 15.607)" fill="#05297a"/>
</svg>
