<svg id="Icon_-_IDS_4" data-name="Icon - IDS 4" xmlns="http://www.w3.org/2000/svg" width="60.627" height="60.627" viewBox="0 0 60.627 60.627">
  <g id="a" transform="translate(0 4.263)">
    <g id="g675">
      <g id="g677">
        <g id="g679">
          <g id="g689" transform="translate(0 11.001)">
            <path id="Path_6747" data-name="Path 6747" d="M3.85,51.114A1.185,1.185,0,0,1,2.7,49.652l1.746-7.24A17.973,17.973,0,0,0,3.017,30.226,30.034,30.034,0,0,1,0,17.292,21.575,21.575,0,0,1,2.975,6.332a1.184,1.184,0,1,1,2.04,1.2,19.206,19.206,0,0,0-2.646,9.757A27.585,27.585,0,0,0,5.137,29.171a20.345,20.345,0,0,1,1.608,13.8L5,50.207a1.185,1.185,0,0,1-1.15.907Z" transform="translate(0 -5.75)" fill="#05297a"/>
          </g>
          <g id="g693" transform="translate(10.315 0.527)">
            <path id="Path_6748" data-name="Path 6748" d="M20.153,57.642a1.185,1.185,0,0,1-1.168-1.388L20.2,49.3a1.184,1.184,0,0,1,1.166-.98h7.257a5.017,5.017,0,0,0,5.011-5.011V37.228a1.184,1.184,0,0,1,1.184-1.184h4.743L36.028,24.537a1.183,1.183,0,0,1-.052-.348,20.048,20.048,0,0,0-5.789-14.119A19.346,19.346,0,0,0,16.3,4.173,21.019,21.019,0,0,0,5.669,7.038,1.184,1.184,0,1,1,4.471,5,23.389,23.389,0,0,1,16.3,1.8,21.7,21.7,0,0,1,31.876,8.412a22.4,22.4,0,0,1,6.467,15.6L42.3,36.88a1.184,1.184,0,0,1-1.132,1.532H36v4.9a7.387,7.387,0,0,1-7.379,7.379H22.361l-1.043,5.975a1.184,1.184,0,0,1-1.165.981Z" transform="translate(-3.886 -1.804)" fill="#05297a"/>
          </g>
          <g id="g705" transform="translate(35.999)">
            <path id="Path_6749" data-name="Path 6749" d="M14.745,10.486a1.184,1.184,0,0,1-.837-2.021l6.512-6.511a1.184,1.184,0,0,1,.837-.347H28.48a1.184,1.184,0,0,1,0,2.368H21.747l-6.165,6.165a1.181,1.181,0,0,1-.837.347Z" transform="translate(-13.561 -1.606)" fill="#05297a"/>
          </g>
          <g id="g713" transform="translate(38.366 45.589)">
            <path id="Path_6750" data-name="Path 6750" d="M27,25.292H19.781a1.184,1.184,0,0,1-.837-.347L14.8,20.8a1.184,1.184,0,0,1,1.675-1.675l3.8,3.8H27a1.184,1.184,0,0,1,0,2.368Z" transform="translate(-14.452 -18.779)" fill="#05297a"/>
          </g>
          <g id="g717" transform="translate(43.48 24.867)">
            <path id="Path_6751" data-name="Path 6751" d="M23.817,13.341H17.563a1.184,1.184,0,0,1,0-2.368h6.253a1.184,1.184,0,0,1,0,2.368Z" transform="translate(-16.379 -10.973)" fill="#05297a"/>
          </g>
          <g id="g721" transform="translate(6.089 6.8)">
            <path id="Path_6752" data-name="Path 6752" d="M3.478,6.536c-.039,0-.078,0-.117-.006a1.022,1.022,0,0,1-.115-.018,1.133,1.133,0,0,1-.221-.068,1.189,1.189,0,0,1-.205-.108c-.032-.021-.063-.045-.093-.069s-.059-.051-.086-.078-.054-.057-.078-.086a1.03,1.03,0,0,1-.069-.094,1.218,1.218,0,0,1-.109-.2,1.275,1.275,0,0,1-.067-.221C2.31,5.545,2.3,5.506,2.3,5.468s-.006-.077-.006-.116,0-.077.006-.116.01-.077.017-.115A1.31,1.31,0,0,1,2.384,4.9a1.252,1.252,0,0,1,.109-.2A1.014,1.014,0,0,1,2.563,4.6a1.032,1.032,0,0,1,.078-.087c.028-.027.056-.053.086-.078s.061-.047.093-.068a1.2,1.2,0,0,1,.426-.177c.038-.008.076-.013.115-.018a1.281,1.281,0,0,1,.234,0c.038,0,.076.01.115.018a1.185,1.185,0,0,1,.426.177c.032.021.063.044.093.068s.06.052.086.078a1.037,1.037,0,0,1,.078.087,1.009,1.009,0,0,1,.069.093,1.186,1.186,0,0,1,.109.2,1.23,1.23,0,0,1,.067.222c.007.037.013.076.017.115a1.028,1.028,0,0,1,.006.116,1,1,0,0,1-.006.116c0,.038-.01.077-.017.115a1.2,1.2,0,0,1-.067.221,1.157,1.157,0,0,1-.109.2,1.032,1.032,0,0,1-.069.094c-.024.029-.051.059-.078.086a1.023,1.023,0,0,1-.086.078c-.03.024-.061.048-.093.069a1.214,1.214,0,0,1-.2.108,1.159,1.159,0,0,1-.222.068,1.025,1.025,0,0,1-.115.018c-.039,0-.078.006-.116.006Z" transform="translate(-2.294 -4.168)" fill="#05297a"/>
          </g>
        </g>
      </g>
    </g>
  </g>
  <g id="Capa_2" data-name="Capa 2" transform="translate(6.715)">
    <g id="g685" transform="translate(0 10.693)">
      <path id="Path_6753" data-name="Path 6753" d="M20.91,35.372H15.492a1.184,1.184,0,0,1-1.184-1.184V32.745a13.478,13.478,0,0,1-2.577-1.068L10.71,32.7a1.184,1.184,0,0,1-1.675,0L5.2,28.866a1.184,1.184,0,0,1,0-1.675L6.225,26.17a13.479,13.479,0,0,1-1.068-2.577H3.714a1.184,1.184,0,0,1-1.184-1.184V16.991a1.184,1.184,0,0,1,1.184-1.184H5.159a13.483,13.483,0,0,1,1.068-2.576L5.2,12.208a1.184,1.184,0,0,1,0-1.675L9.035,6.7a1.184,1.184,0,0,1,1.675,0l1.023,1.023a13.48,13.48,0,0,1,2.575-1.067V5.212a1.184,1.184,0,0,1,1.184-1.184H20.91a1.184,1.184,0,0,1,1.184,1.184V6.659A13.476,13.476,0,0,1,24.67,7.726L25.693,6.7a1.184,1.184,0,0,1,1.675,0L31.2,10.534a1.184,1.184,0,0,1,0,1.675l-1.023,1.023a13.48,13.48,0,0,1,1.068,2.576h1.445a1.184,1.184,0,0,1,1.184,1.184v5.418a1.184,1.184,0,0,1-1.184,1.184H31.245a13.477,13.477,0,0,1-1.068,2.577L31.2,27.191a1.184,1.184,0,0,1,0,1.675L27.367,32.7a1.184,1.184,0,0,1-.837.347h0a1.184,1.184,0,0,1-.837-.347l-1.021-1.021a13.479,13.479,0,0,1-2.577,1.068v1.443a1.184,1.184,0,0,1-1.184,1.184ZM16.676,33h3.05V31.829a1.184,1.184,0,0,1,.927-1.156,11.144,11.144,0,0,0,3.573-1.481,1.184,1.184,0,0,1,1.473.162l.831.831,2.157-2.157-.831-.831a1.184,1.184,0,0,1-.162-1.473,11.14,11.14,0,0,0,1.48-3.572,1.184,1.184,0,0,1,1.156-.927H31.5v-3.05H30.329a1.184,1.184,0,0,1-1.156-.927,11.144,11.144,0,0,0-1.481-3.571,1.184,1.184,0,0,1,.162-1.473l.833-.833L26.53,9.215l-.833.833a1.184,1.184,0,0,1-1.473.162,11.141,11.141,0,0,0-3.571-1.48,1.184,1.184,0,0,1-.927-1.156V6.4h-3.05V7.574a1.184,1.184,0,0,1-.927,1.156,11.14,11.14,0,0,0-3.571,1.48,1.184,1.184,0,0,1-1.473-.162l-.833-.833L7.716,11.371l.833.833a1.184,1.184,0,0,1,.162,1.473A11.146,11.146,0,0,0,7.23,17.248a1.184,1.184,0,0,1-1.156.927H4.9v3.05H6.073a1.184,1.184,0,0,1,1.156.927,11.141,11.141,0,0,0,1.48,3.572A1.184,1.184,0,0,1,8.547,27.2l-.831.831,2.157,2.157.831-.831a1.184,1.184,0,0,1,1.473-.162,11.143,11.143,0,0,0,3.573,1.481,1.184,1.184,0,0,1,.927,1.156V33ZM18.2,26.69A6.989,6.989,0,1,1,25.19,19.7,7,7,0,0,1,18.2,26.69Zm0-11.609A4.621,4.621,0,1,0,22.822,19.7,4.626,4.626,0,0,0,18.2,15.081Z" transform="translate(-2.529 -4.028)" fill="#05297a"/>
    </g>
    <g id="g697" transform="translate(43.019)">
      <path id="Path_6754" data-name="Path 6754" d="M24.182,10.894a5.447,5.447,0,1,1,5.447-5.447A5.453,5.453,0,0,1,24.182,10.894Zm0-8.526A3.079,3.079,0,1,0,27.26,5.447,3.082,3.082,0,0,0,24.182,2.368Z" transform="translate(-18.735)" fill="#05297a"/>
    </g>
    <g id="g701" transform="translate(43.019 24.867)">
      <path id="Path_6755" data-name="Path 6755" d="M24.182,20.261a5.447,5.447,0,1,1,5.447-5.447A5.453,5.453,0,0,1,24.182,20.261Zm0-8.526a3.079,3.079,0,1,0,3.079,3.079A3.082,3.082,0,0,0,24.182,11.736Z" transform="translate(-18.735 -9.367)" fill="#05297a"/>
    </g>
    <g id="g709" transform="translate(43.019 49.733)">
      <path id="Path_6756" data-name="Path 6756" d="M24.182,29.629a5.447,5.447,0,1,1,5.447-5.447A5.453,5.453,0,0,1,24.182,29.629Zm0-8.526a3.079,3.079,0,1,0,3.079,3.079A3.082,3.082,0,0,0,24.182,21.1Z" transform="translate(-18.735 -18.735)" fill="#05297a"/>
    </g>
  </g>
</svg>
