<svg xmlns="http://www.w3.org/2000/svg" width="71.602" height="38.585" viewBox="0 0 71.602 38.585">
  <path id="path2" d="M19.8,32.707l9.1,5.481a2.557,2.557,0,0,0,2.74,0A2.787,2.787,0,0,0,33.06,35.8V16.53A16.53,16.53,0,1,0,16.53,33.06c9.1,0,2.21-.088,3.271-.354Zm38.541,0,9.1,5.481a2.557,2.557,0,0,0,2.74,0A2.787,2.787,0,0,0,71.6,35.8V16.53a16.53,16.53,0,1,0-16.53,16.53C64.176,33.06,57.281,32.972,58.342,32.707ZM60.2,27.4a2.555,2.555,0,0,0-2.122-.265,11.227,11.227,0,0,1-3.006.442,11.05,11.05,0,1,1,11.05-11.05V30.939L60.287,27.4h0Zm-38.541,0a2.555,2.555,0,0,0-2.122-.265,11.227,11.227,0,0,1-3.005.442A11.05,11.05,0,1,1,27.58,16.53V30.939L21.746,27.4Z" fill="#f0d224" fill-rule="evenodd"/>
</svg>
