<svg id="icon_ficha_técnica" data-name="icon/ficha técnica" xmlns="http://www.w3.org/2000/svg" width="90.169" height="100.814" viewBox="0 0 90.169 100.814">
  <path id="Path_6598" data-name="Path 6598" d="M479.4,571.395a8.9,8.9,0,1,1,8.9-8.9A8.9,8.9,0,0,1,479.4,571.395Zm0-13.86a4.95,4.95,0,1,0,4.95,4.95A4.96,4.96,0,0,0,479.4,557.534Z" transform="translate(-410.006 -482.422)" fill="#fff"/>
  <path id="Path_6599" data-name="Path 6599" d="M88.176,0H22.925a1.959,1.959,0,0,0-1.967,1.967v37.7A13.962,13.962,0,0,0,8.9,53.371a14.016,14.016,0,0,0,1.736,6.737,34.281,34.281,0,0,1,4.333,18.977h-13A1.959,1.959,0,0,0,0,81.053V90.94a1.959,1.959,0,0,0,1.967,1.967H5.94v5.94a1.959,1.959,0,0,0,1.967,1.967H88.2a1.959,1.959,0,0,0,1.967-1.967V1.967A2,2,0,0,0,88.176,0ZM14.092,58.179a9.926,9.926,0,0,1-1.247-4.809A10.01,10.01,0,0,1,22.912,43.5a9.913,9.913,0,0,1,8.537,14.632A38.9,38.9,0,0,0,26.563,79.1H18.926a38.405,38.405,0,0,0-4.834-20.919ZM3.947,83.033H41.529v5.94H3.947ZM9.862,96.88V92.907H35.576V96.88Zm76.334,0H39.523V92.907H43.5a1.959,1.959,0,0,0,1.967-1.967V81.053A1.959,1.959,0,0,0,43.5,79.085H30.472a34.888,34.888,0,0,1,4.4-19.08,13.679,13.679,0,0,0,1.7-6.622A13.868,13.868,0,0,0,24.918,39.691V3.947h61.3V96.88Z" transform="translate(0 0)" fill="#fff"/>
  <path id="Path_6600" data-name="Path 6600" d="M298.8,96.234H257.267a1.967,1.967,0,0,1,0-3.934h41.516a1.967,1.967,0,0,1,.013,3.934Z" transform="translate(-222.475 -80.433)" fill="#fff"/>
  <path id="Path_6601" data-name="Path 6601" d="M298.8,188.434H257.267a1.967,1.967,0,0,1,0-3.934h41.516a1.967,1.967,0,0,1,.013,3.934Z" transform="translate(-222.475 -160.778)" fill="#fff"/>
  <path id="Path_6602" data-name="Path 6602" d="M298.8,280.734H257.267a1.967,1.967,0,0,1,0-3.934h41.516a1.967,1.967,0,0,1,.013,3.934Z" transform="translate(-222.475 -241.211)" fill="#fff"/>
  <path id="Path_6603" data-name="Path 6603" d="M379.229,373.134H349.567a1.967,1.967,0,1,1,0-3.934h29.662a1.967,1.967,0,1,1,0,3.934Z" transform="translate(-302.908 -321.731)" fill="#fff"/>
  <path id="Path_6604" data-name="Path 6604" d="M379.229,465.334H349.567a1.967,1.967,0,0,1,0-3.934h29.662a1.967,1.967,0,0,1,0,3.934Z" transform="translate(-302.908 -402.076)" fill="#fff"/>
</svg>
