<svg id="icon_plan_de_estudios" data-name="icon/plan de estudios" xmlns="http://www.w3.org/2000/svg" width="108.253" height="108.423" viewBox="0 0 108.253 108.423">
  <path id="Path_6615" data-name="Path 6615" d="M97.474,108.423H10.817a2.716,2.716,0,0,0-.481-.183A12.054,12.054,0,0,1,1.2,101.318C-.268,98.339-.049,95.14.126,91.974c.06-1.083.975-1.7,2.178-1.753.764-.031,1.529-.006,2.314-.006V79.838H3.083c-2.425,0-3.044-.63-3.044-3.091q0-22.287,0-44.573c0-2.283.674-2.949,2.978-2.95,8.771,0,17.542.023,26.312-.013,3.027-.012,6.027-.074,8.314,2.439a7.97,7.97,0,0,1,5.706-2.42c1.655-.026,3.311-.021,4.966,0A2.18,2.18,0,0,1,50.763,31.3c.025,1.281-.938,2.132-2.474,2.15-1.444.017-2.888,0-4.333,0-2.918,0-4.182,1.266-4.183,4.187q0,14.664,0,29.327v.773c2.118-.138,4.165-.364,6.214-.386,5.177-.055,10.356-.018,15.534-.018h1.313c-.349-.3-.474-.418-.609-.523A19.664,19.664,0,0,1,54.5,53.91c-.175-1.142-.815-1.093-1.57-1.158a6.884,6.884,0,0,1-6.012-4.889A7,7,0,0,1,49.087,40.4a7.674,7.674,0,0,1,5.074-1.7V37.5c0-3.635-.034-7.271.023-10.9a1.669,1.669,0,0,0-1.115-1.827c-3.7-1.718-7.361-3.526-11.036-5.3a2.15,2.15,0,0,1-.014-4.021c.254-.122.5-.251.757-.374q9.456-4.57,18.91-9.142C65.732,3.966,69.764,1.977,73.8,0H75.07a5.59,5.59,0,0,0,.52.323q15.23,7.367,30.453,14.75a14.3,14.3,0,0,1,2.21,1.656V30.917c-.111.213-.206.437-.337.637a1.97,1.97,0,0,1-2.157.978,2.022,2.022,0,0,1-1.687-1.8,7.331,7.331,0,0,1-.044-1.161c0-2.849,0-5.7,0-8.678-.4.163-.687.263-.959.394-2.5,1.208-4.992,2.446-7.512,3.617a1.246,1.246,0,0,0-.863,1.337c.04,3.846.017,7.693.022,11.539,0,.3.042.606.064.9,5.055.118,7.38,3.665,7.511,6.859a6.819,6.819,0,0,1-1.341,4.366A7.314,7.314,0,0,1,94.7,52.869c-2.1,10.8-8.546,16.792-19.419,18.21,0,1.834,0,3.732,0,5.63,0,2.524-.6,3.129-3.111,3.129H8.982v10.3H99.376V88.8q0-14.4,0-28.8c0-1.99.756-3.051,2.148-3.021,1.363.029,2.078,1.055,2.078,2.986q0,14.451,0,28.9v1.3c1.723.164,3.639-.46,4.65,1.522v5.929a3.059,3.059,0,0,0-.183.484,12.042,12.042,0,0,1-9.188,9.943c-.468.13-.939.249-1.408.373ZM4.316,67.341H5.535c7.538,0,15.075-.021,22.613.012,2.445.011,4.938-.373,7.35.8.02-.437.047-.743.047-1.05q0-14.822,0-29.644c0-2.683-1.336-4-4.052-4q-13.05,0-26.1,0H4.316V67.341ZM4.33,94.483A9.317,9.317,0,0,0,5.1,99.637a8.133,8.133,0,0,0,7.842,4.555q41.2-.011,82.409,0c.317,0,.635,0,.95-.021a8.126,8.126,0,0,0,7.576-9.683Zm43.38-77.04c.29.165.491.295.7.4q12.633,6.114,25.282,12.2a2.027,2.027,0,0,0,1.542-.025c6.857-3.272,13.692-6.59,20.53-9.9.222-.107.421-.26.894-.557H95.307q-7.026,0-14.051,0c-1.954,0-2.957-.7-2.981-2.075-.025-1.4,1.033-2.157,3.025-2.158q6.973,0,13.946,0c.351,0,.7-.033,1.3-.064-.37-.237-.478-.322-.6-.381C88.983,11.5,82.021,8.123,75.036,4.793a1.9,1.9,0,0,0-1.431.1q-12.512,6-24.994,12.063c-.28.135-.548.3-.9.487ZM58.567,41.751c0,3.748-.3,7.438.062,11.061a15.946,15.946,0,0,0,31.624.029c.353-3.351.172-6.759.229-10.141,0-.3-.027-.593-.046-.977-.459.186-.816.321-1.165.474-3.828,1.685-7.726,3.233-11.457,5.113a6.8,6.8,0,0,1-6.734.013c-4.081-2.035-8.33-3.73-12.514-5.57ZM90.483,27.419c-.527.234-.878.378-1.219.543-4.435,2.14-8.88,4.258-13.294,6.442a3.184,3.184,0,0,1-3.093-.014c-4.447-2.2-8.924-4.329-13.392-6.481-.323-.156-.658-.286-1.1-.475,0,3.123-.019,6.05.028,8.976a1.239,1.239,0,0,0,.631.888q7.363,3.3,14.765,6.523a1.513,1.513,0,0,0,1.077.065q7.549-3.275,15.062-6.633a1.041,1.041,0,0,0,.511-.765c.036-2.961.023-5.923.023-9.069ZM35.528,75.568c.009-2.584-1.344-3.986-3.81-3.989q-13.3-.012-26.6,0c-.268,0-.535.046-.77.068v3.921H35.528Zm35.481-3.992H50.034c-2.252,0-4.5-.03-6.755.011a3.349,3.349,0,0,0-3.4,3.957H71.009V71.576ZM54.1,48.51V43.023a2.792,2.792,0,1,0,0,5.486Zm40.675.027a2.767,2.767,0,0,0,2.955-1.479,2.442,2.442,0,0,0-.141-2.784,2.686,2.686,0,0,0-2.814-1.249v5.512Z" transform="translate(0 0)" fill="#fff"/>
  <path id="Path_6616" data-name="Path 6616" d="M16.621,7.11a2.354,2.354,0,0,1-2.154,1.567,2.085,2.085,0,0,1-2-1.7,2.107,2.107,0,0,1,1.165-2.264,2.084,2.084,0,0,1,2.539.644c.165.221.3.462.454.694Z" transform="translate(91.632 33.337)" fill="#fff"/>
  <path id="Path_6617" data-name="Path 6617" d="M10.659,5.168c2.39,0,4.781-.031,7.17.01A2.1,2.1,0,0,1,19.992,8a2.035,2.035,0,0,1-2.043,1.388c-4.85.02-9.7.028-14.551,0A2.106,2.106,0,0,1,1.193,7.294a2.149,2.149,0,0,1,2.3-2.116C5.879,5.144,8.269,5.168,10.659,5.168Z" transform="translate(8.797 38.034)" fill="#fff"/>
  <path id="Path_6618" data-name="Path 6618" d="M6.6,10.62c-1.021,0-2.042.021-3.063-.005A2.175,2.175,0,0,1,1.193,8.539,2.137,2.137,0,0,1,3.468,6.4q3.22-.057,6.442,0A2.13,2.13,0,0,1,12.148,8.47a2.153,2.153,0,0,1-2.275,2.142c-1.09.035-2.182.007-3.274.008Z" transform="translate(8.797 46.981)" fill="#fff"/>
  <path id="Path_6619" data-name="Path 6619" d="M7.135,8.434a2.179,2.179,0,0,1-2.057,2.142,2.1,2.1,0,0,1-.086-4.2,2.19,2.19,0,0,1,2.143,2.06Z" transform="translate(21.805 47.006)" fill="#fff"/>
  <path id="Path_6620" data-name="Path 6620" d="M12.459,11.612c1.442,0,2.885-.018,4.327,0,1.481.023,2.386.843,2.387,2.11a2.114,2.114,0,0,1-2.384,2.112q-4.38.032-8.759,0a2.123,2.123,0,1,1,0-4.219C9.5,11.591,10.981,11.612,12.459,11.612Z" transform="translate(41.764 85.588)" fill="#fff"/>
  <path id="Path_6621" data-name="Path 6621" d="M10.73,5.984A2.11,2.11,0,0,1,8.637,3.907a2.1,2.1,0,0,1,4.2.01A2.112,2.112,0,0,1,10.73,5.984Z" transform="translate(63.7 13.536)" fill="#fff"/>
</svg>
