<svg id="icono_prepa02" data-name="icono/prepa02" xmlns="http://www.w3.org/2000/svg" width="75.599" height="69.022" viewBox="0 0 75.599 69.022">
  <path id="Path_6561" data-name="Path 6561" d="M0,16.292a37.445,37.445,0,0,1,.463-3.8A23.819,23.819,0,0,1,1.79,8.107c.64-1.472,1.393-1.656,3.1-1.465,4.925.549,9.848,1.128,14.787,1.542a238.11,238.11,0,0,0,26.228.532A216.855,216.855,0,0,0,67.786,7.023c1.094-.141,2.195-.255,3.279-.443A2.061,2.061,0,0,1,73.46,7.619a13.709,13.709,0,0,1,1.368,3.524,41.657,41.657,0,0,1-.189,16.88,10.407,10.407,0,0,1-1.228,2.789,2.17,2.17,0,0,1-2.44.953,200.827,200.827,0,0,0-21.917-1.977c-.244-.009-.488,0-.822,0,.081.223.135.407.214.581.668,1.471,1.329,2.946,2.018,4.409a2.151,2.151,0,0,1-.44,2.74,2.665,2.665,0,0,1-2.995.408c-.22-.088-.45-.157-.765-.265A3.2,3.2,0,0,1,44.12,39.9h-1.18a3.48,3.48,0,0,1-2.056-2.139c-.557-1.338-1.2-2.648-1.849-4.08-.666,1.458-1.319,2.788-1.879,4.15A3.39,3.39,0,0,1,35.119,39.9h-1.18A3.266,3.266,0,0,1,31.8,37.654c-.31.106-.538.179-.762.261a2.712,2.712,0,0,1-3-.4,2.182,2.182,0,0,1-.438-2.742c.69-1.462,1.352-2.935,2.021-4.406.1-.211.165-.432.266-.7-.212,0-.309,0-.406,0A219.537,219.537,0,0,0,4.7,31.724c-1.475.208-2.286-.045-2.867-1.387A24.784,24.784,0,0,1,.466,25.892,36.314,36.314,0,0,1,0,22.093ZM47.143,27.4c.544.025,1.126.049,1.708.079,2.258.116,4.524.157,6.772.365,5.133.476,10.258,1.027,15.383,1.571.437.046.644-.039.741-.414.232-.894.536-1.777.7-2.681A40.271,40.271,0,0,0,72.841,15.1c-.193-1.912-.7-3.8-1.076-5.694-.074-.374-.26-.534-.767-.465a230.522,230.522,0,0,1-26.06,2.091,2.352,2.352,0,0,0-.322.033c.23,2.3.448,4.553.7,6.8a1.251,1.251,0,0,0,.362.622A7.234,7.234,0,0,1,47.8,24.073a28.33,28.33,0,0,1-.659,3.331ZM6.466,9.231A44.521,44.521,0,0,1,6.5,28.938l24.465-1.816a1.8,1.8,0,0,0-.09-.3,7.381,7.381,0,0,1,.39-6.835,1.438,1.438,0,0,0,.189-.635,27.434,27.434,0,0,0-.84-7.753c-.12-.47-.331-.576-.83-.607Q20.893,10.437,12,9.822c-1.855-.132-3.7-.391-5.538-.591ZM45.315,23.8a6,6,0,0,0-6.239-5.767,6.025,6.025,0,0,0-6.327,5.689,6.006,6.006,0,0,0,6.276,5.8,6.021,6.021,0,0,0,6.29-5.724ZM34.05,17.129a9.756,9.756,0,0,1,8.8-.636c-.326-1.738-.636-3.313-.908-4.894-.075-.437-.3-.527-.741-.52-1.89.031-3.78.031-5.671.04-.78,0-1.559,0-2.334,0l.854,6.01ZM3.777,9.64a35.526,35.526,0,0,0,0,19.085A35.822,35.822,0,0,0,3.777,9.64ZM48.232,35.874l-2.839-6.209-4.451,2.217,2.551,5.568c.1-.064.13-.072.138-.087.257-.508.508-1.02.77-1.526a1.332,1.332,0,0,1,1.912-.69c.584.214,1.163.44,1.92.728Zm-11.1-3.994-4.454-2.212-2.845,6.251c.71-.288,1.221-.5,1.734-.7,1.11-.444,1.69-.243,2.175.753.237.486.467.975.773,1.615l2.617-5.7Z" transform="translate(0 29.12)" fill="#05297a"/>
  <path id="Path_6562" data-name="Path 6562" d="M0,13.3a3.274,3.274,0,0,1,2.34-1.937q17-5.514,33.976-11.1A4.132,4.132,0,0,1,39.03.2Q56.315,5.873,73.613,11.515c1.582.517,2.3,1.781,1.758,3.063a2.6,2.6,0,0,1-1.748,1.433c-1.988.639-3.967,1.3-5.976,1.957.617,1.7.339,3.416.328,5.109a2.351,2.351,0,0,1-2.5,2.2c-.835.031-1.673.032-2.507,0a2.383,2.383,0,0,1-2.51-2.327c-.025-.829,0-1.659,0-2.626-1.258.41-2.427.776-3.576,1.19-.132.048-.2.367-.206.562-.014,2.091-.041,4.182,0,6.272A2.5,2.5,0,0,1,55.32,30.66,14.175,14.175,0,0,1,50.3,32.32a75.891,75.891,0,0,1-17.255.86,44.827,44.827,0,0,1-10.1-1.411,14.481,14.481,0,0,1-2.85-1.22,2.246,2.246,0,0,1-1.221-2.162c.038-2.269.012-4.538.012-6.844-2.426-.79-4.829-1.57-7.23-2.354-3.1-1.012-6.181-2.057-9.294-3.026A3.327,3.327,0,0,1,0,14.245V13.3Zm18.888,5.8c0-.949.041-1.8-.01-2.654a2.282,2.282,0,0,1,1.355-2.3,16.811,16.811,0,0,1,3.087-1.235A44.742,44.742,0,0,1,32.7,11.619a76.035,76.035,0,0,1,17.915.9A13.389,13.389,0,0,1,55.282,14.1a2.472,2.472,0,0,1,1.39,2.363c-.052.848-.01,1.7-.01,2.626.67-.214,1.269-.4,1.864-.6,1.23-.409,2.559-.647,3.414-1.7a1.238,1.238,0,0,1,.553-.325.633.633,0,0,0,.488-.716c-.023-1.574-.027-3.148,0-4.721.008-.434-.153-.617-.6-.762Q50.348,6.357,38.321,2.425a1.83,1.83,0,0,0-1.043,0Q22.047,7.374,6.829,12.353c-1.383.451-2.764.906-4.3,1.409L18.888,19.1Zm35.261,6.878c0-2.945-.037-5.956.024-8.966A1.23,1.23,0,0,0,53.1,15.592c-2.094-.463-4.175-1.049-6.3-1.307a72.753,72.753,0,0,0-18.954.123,57.915,57.915,0,0,0-5.692,1.311.934.934,0,0,0-.767,1.058c.037,2.9.016,5.8.019,8.7,0,.21.028.419.033.487a72.068,72.068,0,0,1,32.713.017Zm-.007,2.708a11.778,11.778,0,0,0-1.779-.673c-2.253-.438-4.5-.936-6.783-1.2a73.513,73.513,0,0,0-14.2-.148,36.93,36.93,0,0,0-8.59,1.47c-.424.138-.822.344-1.231.519l-.006.254c1.11.327,2.2.751,3.335.966A72.308,72.308,0,0,0,49.5,30.12a13.233,13.233,0,0,0,4.644-1.434Zm11.39-12.479,7.5-2.45-7.5-2.44v4.891Zm-.06,6.747c0-1.223.042-2.386-.017-3.543A1.084,1.084,0,0,0,64.3,18.39c-.644-.034-1.21.246-1.252.812-.093,1.237-.029,2.484-.029,3.753Z" transform="translate(0 0)" fill="#05297a"/>
</svg>
