<svg xmlns="http://www.w3.org/2000/svg" width="75" height="71.304" viewBox="0 0 75 71.304">
  <g id="Icono" transform="translate(0.055 -0.006)">
    <path id="Path_6764" data-name="Path 6764" d="M66.041.379a1.637,1.637,0,0,0-2.274.19h0L57.513,8.055,34.676,35.345h0a10.108,10.108,0,0,0-1.9,3.6L28.9,52.5a1.617,1.617,0,0,0,1.137,1.99,2.333,2.333,0,0,0,1.137-.095l12.6-6.254a9.182,9.182,0,0,0,3.222-2.558L76.085,10.9a1.637,1.637,0,0,0-.19-2.274ZM64.62,19.52l-7.107-6.444,1.421-1.706,7.3,6.159-1.611,1.9ZM45.573,42.357,38.182,36.2,55.428,15.541l7.107,6.444ZM33.065,49.938l2.843-10.044c.095-.379.284-.663.379-1.042L43.3,44.726c-.284.19-.663.379-.948.569l-9.381,4.643Zm35.25-34.776L61.019,9,65.283,3.98l7.391,6.159L68.41,15.256Z" transform="translate(-1.514 0)" fill="#1c42e8"/>
    <path id="Path_6765" data-name="Path 6765" d="M58.558,65.065,47.376,70.371a5.973,5.973,0,0,1-7.391-1.99,9.2,9.2,0,0,0-12.7-2.274l-.379.284a6.032,6.032,0,0,1-8.244-1.516c-.19-.284-.284-.474-.474-.758L16.675,60.99a6.754,6.754,0,0,0-9-3.127,7.021,7.021,0,0,0-3.317,3.506L.092,72.077a1.5,1.5,0,0,0,.853,2.085,1.5,1.5,0,0,0,2.085-.853l4.359-10.8a3.448,3.448,0,0,1,4.548-1.9,3.186,3.186,0,0,1,1.8,1.706l1.516,3.127a9.17,9.17,0,0,0,12.224,4.264c.379-.19.853-.474,1.232-.663l.379-.284a5.9,5.9,0,0,1,8.149,1.516,9.085,9.085,0,0,0,11.371,3.032L59.789,68a1.632,1.632,0,0,0-1.421-2.938h.19Z" transform="translate(0 -2.998)" fill="#f0d224"/>
  </g>
</svg>
