<svg xmlns="http://www.w3.org/2000/svg" width="78.962" height="56.01" viewBox="0 0 78.962 56.01">
  <g id="icon_prepa_01" data-name="icon/prepa 01" transform="translate(0)">
    <path id="Path_6558" data-name="Path 6558" d="M78.962,42.046A9.584,9.584,0,0,1,75.314,47.5a32.1,32.1,0,0,1-4.565,2.842,51.668,51.668,0,0,1-14.032,4.224,101.5,101.5,0,0,1-24.344,1.206A75.032,75.032,0,0,1,12,51.934a30.949,30.949,0,0,1-7.547-3.787C.965,45.7-.581,42.5.2,38.176,1.607,30.35,5.907,24.9,13.231,21.851c.189-.079.38-.153.657-.265A11.8,11.8,0,0,1,8.818,10.473a11.436,11.436,0,0,1,4.093-7.712A11.83,11.83,0,1,1,27.354,21.474l6.195,3.447a8.8,8.8,0,0,1,11.857.008l6.186-3.449c-7.006-5.121-5.65-14.1-1.424-18.127A11.914,11.914,0,0,1,66.784,3.4a12.01,12.01,0,0,1-1.661,18.206,20.941,20.941,0,0,1,5.927,3.256,20.322,20.322,0,0,1,7.775,13.972,2.29,2.29,0,0,0,.137.427v2.781ZM31.584,27.59a16.823,16.823,0,0,0-12.873-3.873A17.454,17.454,0,0,0,3.255,38.629a6.283,6.283,0,0,0,2.82,6.861c.724.487,1.444.987,2.2,1.409a41.608,41.608,0,0,0,11.295,3.954c1.664.37,3.348.653,5.044.979.378-6.478,3.452-11.007,9.232-13.742-3.1-2.971-3.83-6.452-2.267-10.5ZM54.346,51.771a1.976,1.976,0,0,0,.279,0,63.04,63.04,0,0,0,11.782-2.931A21.884,21.884,0,0,0,74.061,44.5a4.774,4.774,0,0,0,1.8-3.545A17.466,17.466,0,0,0,55.672,23.84a16.367,16.367,0,0,0-8.283,3.76A8.935,8.935,0,0,1,45.127,38.09a15.111,15.111,0,0,1,9.219,13.681ZM29.2,11.778a8.684,8.684,0,1,0-8.721,8.713A8.67,8.67,0,0,0,29.2,11.778Zm20.56-.028a8.684,8.684,0,1,0,8.752-8.67A8.691,8.691,0,0,0,49.765,11.75Zm-21.953,40.5a103.833,103.833,0,0,0,23.35-.007,11.714,11.714,0,0,0-11.718-12.1C32.86,40.184,27.381,45.836,27.812,52.246ZM45.088,31.421A5.6,5.6,0,1,0,39.4,37a5.593,5.593,0,0,0,5.685-5.575Z" transform="translate(0 0)" fill="#05297a"/>
    <path id="Path_6559" data-name="Path 6559" d="M17.025,14.086c-.114,1.5-.621,2.255-1.66,2.263-1.011.008-1.539-.7-1.592-2.119a11.413,11.413,0,0,0-2.027-6.053c-.129-.192-.278-.371-.393-.571a1.575,1.575,0,0,1,.35-2.138,1.463,1.463,0,0,1,2.161.394,24.919,24.919,0,0,1,2.164,4.054,30.258,30.258,0,0,1,1,4.17Z" transform="translate(56.41 26.231)" fill="#05297a"/>
    <path id="Path_6560" data-name="Path 6560" d="M11.978,7.715a1.429,1.429,0,0,1-1.441-1.545A1.454,1.454,0,0,1,12.029,4.66a1.5,1.5,0,0,1,1.46,1.561A1.465,1.465,0,0,1,11.978,7.715Z" transform="translate(53.594 23.703)" fill="#05297a"/>
  </g>
</svg>
