<svg id="icono_prepa06" data-name="icono/prepa06" xmlns="http://www.w3.org/2000/svg" width="69.761" height="57.869" viewBox="0 0 69.761 57.869">
  <path id="Path_6579" data-name="Path 6579" d="M0,35.219c.354-.434.726-.83,1.369-.582s.681.768.678,1.343c-.009,2.339,0,4.678,0,7.016v.781c.271.014.49.034.709.034q12.228,0,24.455-.008a1.3,1.3,0,0,0,.769-.239.473.473,0,0,0-.007-.8,1.351,1.351,0,0,1-.388-.47c-.44-1.022-1.245-1.125-2.253-1.115-4.813.049-9.627.022-14.441.022-1.236,0-1.515-.281-1.517-1.521,0-.25.005-.5,0-.749A2.3,2.3,0,0,0,6.98,36.508c-.408-.013-.818.011-1.226-.013a1.019,1.019,0,0,1-1.079-1.069c-.015-.181-.006-.363-.006-.545q0-13.829,0-27.657c0-1.423.246-1.67,1.66-1.672.227,0,.454,0,.681,0a2.28,2.28,0,0,0,2.355-2.3c.02-.431-.008-.863.011-1.294A.982.982,0,0,1,10.445.891q3.133-.021,6.267,0a1.022,1.022,0,1,1,0,2.033c-1.5.016-3,.006-4.5.006h-.8a4.594,4.594,0,0,1-1.269,3.381A4.414,4.414,0,0,1,6.773,7.6v26.8c2.912.185,4.5,1.733,4.682,4.711H25.907a9.262,9.262,0,0,1,2.828-9.461,8.805,8.805,0,0,1,6.832-2.317,8.966,8.966,0,0,1,6.913,3.948,9.211,9.211,0,0,1,1.346,7.828H58.294c.185-2.908,1.713-4.519,4.7-4.7V7.663c-2.89-.171-4.5-1.7-4.694-4.735H22.171c-1.095,0-1.6-.328-1.594-1.034s.5-1.009,1.61-1.009H58.836c1.3,0,1.549.245,1.553,1.542,0,.318-.015.637.012.953a2.261,2.261,0,0,0,2.278,2.165c.408.015.818-.006,1.226.01a1.074,1.074,0,0,1,1.184,1.189c.008.159,0,.318,0,.477q0,13.829,0,27.657c0,1.378-.248,1.624-1.629,1.627-.272,0-.546-.01-.817.007A2.281,2.281,0,0,0,60.4,38.788c-.023.43,0,.863-.012,1.294a1.026,1.026,0,0,1-1.1,1.112c-.226.013-.454,0-.681,0q-7.527,0-15.055-.009a.9.9,0,0,0-.934.49c-.2.374-.53.679-.764,1.04-.117.18-.267.5-.191.608a1.072,1.072,0,0,0,.689.467c1.475.042,2.951.021,4.427.021H67.716V43q0-17.371,0-34.742c0-1.1.325-1.588,1.046-1.571.691.016,1,.491,1,1.553q0,18.052,0,36.1c0,1.244-.27,1.514-1.517,1.514h-25.1c.115.241.185.419.279.583.608,1.063,1.23,2.119,1.829,3.187a1.035,1.035,0,0,1-.445,1.649q-2.2,1.293-4.42,2.551a1.07,1.07,0,0,1-1.7-.483c-1.14-1.961-2.269-3.928-3.405-5.892-.111-.191-.235-.375-.4-.641-.167.262-.3.458-.42.664q-1.671,2.886-3.338,5.773c-.525.9-.982,1.023-1.9.5q-2.124-1.22-4.242-2.452c-.778-.454-.907-.912-.467-1.691.58-1.027,1.179-2.043,1.765-3.067.108-.189.2-.389.345-.68h-.888q-12.16,0-24.319.01A1.432,1.432,0,0,1,0,45.166V35.22Zm34.873,8.593a7.227,7.227,0,1,0-7.22-7.233,7.225,7.225,0,0,0,7.22,7.233Zm-5.045.683-3.134,5.429,3,1.726L33.067,45.8l-3.24-1.306Zm6.862,1.3,3.384,5.853,3-1.731L39.934,44.5,36.69,45.8Z" transform="translate(0 3.803)" fill="#05297a"/>
  <path id="Path_6580" data-name="Path 6580" d="M0,.6A1.85,1.85,0,0,1,1.559,0Q34.867.018,68.175.01c1.338,0,1.584.249,1.585,1.587,0,1.612,0,3.224,0,4.836,0,.848-.383,1.306-1.051,1.288-.639-.017-.986-.459-.989-1.281,0-1.427,0-2.854,0-4.334H2.043V33.76c0,.159-.009.318,0,.477.037.587-.076,1.115-.7,1.332S.32,35.424,0,34.935Z" transform="translate(0 0)" fill="#05297a"/>
  <path id="Path_6581" data-name="Path 6581" d="M14.021,8.169q-3.881,0-7.763,0c-1.145,0-1.439-.3-1.44-1.46,0-1.248-.006-2.5,0-3.745.005-.884.354-1.249,1.237-1.25q8.035-.01,16.07,0c.88,0,1.23.369,1.235,1.252q.011,1.941,0,3.881c0,.97-.339,1.317-1.307,1.32-2.678.008-5.357,0-8.035,0Zm-7.14-2.1h14.39V3.805H6.881Z" transform="translate(20.789 7.373)" fill="#05297a"/>
  <path id="Path_6582" data-name="Path 6582" d="M22.957,6.234H4.36c-.227,0-.455.009-.681-.011a.943.943,0,0,1-.929-.916.939.939,0,0,1,.766-1.055,2.646,2.646,0,0,1,.674-.058q18.835,0,37.67,0a2.58,2.58,0,0,1,.738.08.92.92,0,0,1,.7,1.033.946.946,0,0,1-.93.915c-.225.02-.454.011-.681.011H22.957Z" transform="translate(11.854 18.097)" fill="#05297a"/>
  <path id="Path_6583" data-name="Path 6583" d="M23.064,5.024H41.592c.136,0,.272,0,.409,0,.85.012,1.332.387,1.32,1.027s-.487,1.013-1.35,1.013q-10.864.005-21.729,0H4.3c-1.045,0-1.543-.325-1.558-1.01s.487-1.032,1.52-1.032h18.8Z" transform="translate(11.847 21.69)" fill="#05297a"/>
  <path id="Path_6584" data-name="Path 6584" d="M18.617,3.37h13.14a4.084,4.084,0,0,1,.68.017.95.95,0,0,1,.872.971A.957.957,0,0,1,32.5,5.383a2.912,2.912,0,0,1-.678.029q-13.276,0-26.552,0a2.844,2.844,0,0,1-.678-.03.957.957,0,0,1-.805-1.029.95.95,0,0,1,.877-.966,4.192,4.192,0,0,1,.68-.016H18.617Z" transform="translate(16.334 14.529)" fill="#05297a"/>
  <path id="Path_6585" data-name="Path 6585" d="M9.644,7.409a6.612,6.612,0,0,1,1.114-.556,1.478,1.478,0,0,1,1.788,1.073,4.943,4.943,0,0,1,.1,1.01c.027.573-.049,1.13-.676,1.346a1.057,1.057,0,0,1-1.38-.663c-1.2,1.249-2.783.9-3.126-1.019-.885.888-1.724,1.731-2.565,2.572-.772.773-1.362.893-1.856.38s-.377-1.039.383-1.8C4.481,8.691,5.55,7.642,6.6,6.57A1.8,1.8,0,0,1,8.452,5.86c.647.179.969.611,1.192,1.548Z" transform="translate(11.845 25.039)" fill="#05297a"/>
  <path id="Path_6586" data-name="Path 6586" d="M15.421,7.441a6.4,6.4,0,0,1,1-.549,1.467,1.467,0,0,1,1.9,1.059,3.824,3.824,0,0,1,.028,1.611,1.286,1.286,0,0,1-.758.745c-.54.192-.952-.132-1.223-.705a1.829,1.829,0,0,1-1.942.693,1.6,1.6,0,0,1-1.11-1.62l-.187-.124c-.444.5-.877,1.015-1.337,1.5-.483.511-.981,1.009-1.494,1.488a1.014,1.014,0,0,1-1.463.04.973.973,0,0,1,.019-1.456c1.287-1.312,2.572-2.627,3.9-3.89a1.527,1.527,0,0,1,2.545.731c.045.15.076.3.118.477Z" transform="translate(36.763 25.029)" fill="#05297a"/>
  <path id="Path_6587" data-name="Path 6587" d="M14.907,11.366A4.607,4.607,0,1,1,10.348,6.73a4.646,4.646,0,0,1,4.559,4.637Zm-4.6-2.594a2.564,2.564,0,1,0,2.555,2.572,2.6,2.6,0,0,0-2.555-2.572Z" transform="translate(24.579 29.053)" fill="#05297a"/>
</svg>
