<svg id="icono_prepa03" data-name="icono/prepa03" xmlns="http://www.w3.org/2000/svg" width="58.883" height="66.009" viewBox="0 0 58.883 66.009">
  <path id="Path_6563" data-name="Path 6563" d="M6.534,27.691q0-8.087,0-16.174c0-1.409.855-1.93,2.113-1.291,1.794.912,3.545,1.917,5.381,2.732a2.231,2.231,0,0,1,1.524,2.556c-.094.974-.019,1.963-.019,2.934h4.493c0-2.246-.02-4.439.015-6.632a.971.971,0,0,0-.635-1.014c-2.21-1.13-4.4-2.3-6.6-3.448a2.006,2.006,0,0,0-.643-.277q-4.4-.5-8.812-.961c-.183-.019-.532.171-.564.316a18.076,18.076,0,0,0-.663,3.6c-.067,5.861-.03,11.724-.03,17.586v.958H6.534v-.883Z" transform="translate(8.467 24.851)" fill="none"/>
  <path id="Path_6564" data-name="Path 6564" d="M8.359,11.33a5.105,5.105,0,1,0-4.973-5.2,5.073,5.073,0,0,0,4.973,5.2Z" transform="translate(13.757 4.555)" fill="none"/>
  <path id="Path_6565" data-name="Path 6565" d="M12.036,7.67c-.088.513-.258,1.012-.392,1.517L9.98,15.447l8.212.917c.424-1.585.843-3.12,1.244-4.659A1.291,1.291,0,0,1,20.594,10.6a1.273,1.273,0,0,1,1.285.845c.49.953.963,1.917,1.509,2.837a1.157,1.157,0,0,0,.81.512c2.119.042,4.239.029,6.358.02.921,0,1.418-.482,1.406-1.308-.012-.8-.487-1.243-1.375-1.251-1.439-.012-2.879-.016-4.318,0a1.6,1.6,0,0,1-1.614-1q-1.074-2.223-2.245-4.4a1.52,1.52,0,0,0-.771-.672C18.692,5.2,15.734,4.245,12.772,3.3a2,2,0,0,0-.987-.063c-2.987.65-5.97,1.315-8.945,2.018a1.132,1.132,0,0,0-.7.656C1.584,7.821,1.081,9.742.578,11.663c-.247.944.049,1.512.844,1.719.86.224,1.4-.121,1.668-1.074q.531-1.926,1.044-3.858a1.3,1.3,0,0,1,1-1.078c1.812-.4,3.616-.832,5.435-1.194A1.2,1.2,0,0,1,12.036,7.67Z" transform="translate(2.005 13.025)" fill="none"/>
  <path id="Path_6566" data-name="Path 6566" d="M12.1,30.526q0-14.325,0-28.651a2.516,2.516,0,0,0-.025-.547A.948.948,0,0,0,11.095.49a.916.916,0,0,0-.958.854,4.109,4.109,0,0,0-.029.7q0,14.129,0,28.258V31.2h1.966c.012-.261.029-.466.029-.67Z" transform="translate(41.066 1.992)" fill="none"/>
  <path id="Path_6567" data-name="Path 6567" d="M3.464,7.519V22.882h1.66v-.935c0-2.54-.006-5.08,0-7.62,0-1.1.412-1.492,1.528-1.506.254,0,.509,0,.845,0,0-1.041.012-2-.013-2.964a.581.581,0,0,0-.278-.408C5.99,8.8,4.759,8.183,3.464,7.519Z" transform="translate(14.076 30.556)" fill="none"/>
  <path id="Path_6568" data-name="Path 6568" d="M37.815,7.96q0,3.652,0,7.3c0,1.563-.333,1.9-1.88,1.9q-7.893,0-15.786,0h-.983v.967q0,3.574,0,7.148c0,1.692-.276,1.973-1.939,1.973H.607v7.57H53.931V7.057H37.815v.9Z" transform="translate(2.469 28.676)" fill="none"/>
  <path id="Path_6569" data-name="Path 6569" d="M6.88,4.277c.041.173.159.25.24.374V3.292a1.071,1.071,0,0,0-.24.985Z" transform="translate(27.822 13.378)" fill="#05297a"/>
  <path id="Path_6570" data-name="Path 6570" d="M58.879,35.061c0-1.526-.3-1.822-1.849-1.824H55.609v-1.16q0-13.9,0-27.808c0-.34.005-.682-.02-1.021A3.414,3.414,0,0,0,52.283,0a3.375,3.375,0,0,0-3.52,3.089.712.712,0,0,1-.107.266V33.238h-.911q-4.124,0-8.247,0c-1.3,0-1.69.388-1.692,1.684,0,2.514,0,5.027,0,7.541,0,.277-.025.554-.038.836h-6.79v-.9c0-2.173-.034-4.348.015-6.52a1.97,1.97,0,0,0-1.236-2.036c-2.405-1.2-4.77-2.485-7.2-3.761l.511-1.858c.283.52.5.9.7,1.292a1.382,1.382,0,0,0,1.327.8c2.566,0,5.132.029,7.7-.013A3.587,3.587,0,0,0,36.4,26.48a3.553,3.553,0,0,0-3.652-3.687c-1.178-.019-2.357.013-3.534-.021a.915.915,0,0,1-.686-.33c-.893-1.674-1.743-3.371-2.6-5.057A7.583,7.583,0,0,0,19.945,3.542a7.3,7.3,0,0,0-4.126,3.206,7.584,7.584,0,0,0-.6,6.966,6.752,6.752,0,0,0-1.364.012C10.3,14.5,6.76,15.318,3.214,16.11a1.429,1.429,0,0,0-1.191,1.1c-.628,2.376-1.3,4.74-1.89,7.125a3.406,3.406,0,0,0,1.355,3.817A3.73,3.73,0,0,0,7.409,26.2c.3-1,.536-2.021.832-3.024.066-.223.223-.539.4-.588.788-.222,1.6-.362,2.522-.557-.5,1.879-.888,3.643-1.449,5.35A34.909,34.909,0,0,0,8.048,39.65c.159,4.55.036,9.109.036,13.794-2.011,0-3.942,0-5.872,0-1.252,0-1.658.4-1.66,1.632q-.005,4.517,0,9.034c0,1.568.324,1.9,1.868,1.9H57.007c.157,0,.314,0,.471,0,.942-.025,1.367-.449,1.4-1.409.014-.445,0-.89,0-1.335q0-14.1,0-28.2ZM51.172,32.3q0-14.129,0-28.258a4.1,4.1,0,0,1,.029-.7.916.916,0,0,1,.958-.854.948.948,0,0,1,.982.838,2.516,2.516,0,0,1,.025.547q0,14.325,0,28.651c0,.2-.017.409-.029.67H51.172V32.3ZM22.386,5.677a5.105,5.105,0,1,1-5.242,5.01,5.086,5.086,0,0,1,5.242-5.01ZM7.143,20.4a1.3,1.3,0,0,0-1,1.078Q5.627,23.407,5.1,25.333c-.263.953-.809,1.3-1.668,1.074-.8-.208-1.091-.776-.844-1.719.5-1.921,1.006-3.842,1.562-5.748a1.132,1.132,0,0,1,.7-.656c2.975-.7,5.958-1.369,8.945-2.018a2,2,0,0,1,.987.063c2.962.941,5.92,1.895,8.868,2.881a1.52,1.52,0,0,1,.771.672q1.17,2.174,2.245,4.4a1.6,1.6,0,0,0,1.614,1c1.439-.016,2.878-.012,4.318,0,.888.007,1.363.454,1.375,1.251.012.826-.485,1.3-1.406,1.308-2.12.009-4.239.022-6.358-.02a1.157,1.157,0,0,1-.81-.512c-.546-.92-1.019-1.884-1.509-2.837a1.273,1.273,0,0,0-1.285-.845,1.291,1.291,0,0,0-1.158,1.108c-.4,1.54-.82,3.075-1.244,4.659l-8.212-.917,1.664-6.26c.134-.5.3-1,.392-1.517A1.2,1.2,0,0,0,12.578,19.2c-1.819.362-3.623.8-5.435,1.194Zm3.417,32.07c0-5.862-.037-11.725.03-17.586a18.076,18.076,0,0,1,.663-3.6c.032-.146.381-.335.564-.316q4.409.449,8.812.961a2,2,0,0,1,.643.277c2.2,1.15,4.391,2.318,6.6,3.448a.971.971,0,0,1,.635,1.014c-.034,2.193-.015,4.386-.015,6.632H24c0-.97-.076-1.96.019-2.934A2.231,2.231,0,0,0,22.5,37.81c-1.836-.815-3.587-1.82-5.381-2.732C15.857,34.439,15,34.96,15,36.369q-.007,8.087,0,16.174v.883H10.56v-.958Zm11.016-9.091c-.336,0-.59,0-.845,0-1.116.014-1.524.4-1.528,1.506-.009,2.54,0,5.08,0,7.62v.935h-1.66V38.075c1.3.663,2.526,1.285,3.745,1.929a.581.581,0,0,1,.278.408c.024.961.013,1.923.013,2.964ZM56.4,63.5H3.076V55.932H19.7c1.663,0,1.939-.281,1.939-1.973q0-3.574,0-7.148v-.967h.983q7.893,0,15.786,0c1.547,0,1.88-.338,1.88-1.9q0-3.652,0-7.3v-.9H56.4V63.5Z" transform="translate(0 0)" fill="#05297a"/>
  <path id="Path_6571" data-name="Path 6571" d="M8,15.928c.236,0,.471,0,.707,0h11.9V.663a.579.579,0,0,1-.627.372,49.772,49.772,0,0,0-5.178.094,9.644,9.644,0,0,0-3.341.984,3.051,3.051,0,0,0-1.428,4.029A8.98,8.98,0,0,0,11.163,8.1c1.142,1.589.983,2.727-.647,3.838a16.337,16.337,0,0,1-1.707.959c-.44.228-.9.409-1.354.621a1.565,1.565,0,0,0-.554.458v1.359a1.243,1.243,0,0,0,1.1.593ZM14.489,3.643c2-.153,4.02-.031,6.109-.031-3.667,3.068-3.877,6.358,0,9.852H12.731a1.278,1.278,0,0,1,.128-.232c2.176-2.03,2.061-4.276.288-6.554-1.462-1.879-1.073-2.85,1.342-3.035Z" transform="translate(28.041 2.693)" fill="#05297a"/>
</svg>
