<svg xmlns="http://www.w3.org/2000/svg" width="73.752" height="65.723" viewBox="0 0 73.752 65.723">
  <g id="Icon_LEG_04" data-name="Icon/ LEG 04" transform="translate(0 -0.344)">
    <g id="c" transform="translate(0 0.344)">
      <g id="d">
        <g id="e" transform="translate(11.764 7.256)">
          <path id="Path_6696" data-name="Path 6696" d="M3.542,7.193a1.126,1.126,0,0,1-.71-.248.954.954,0,0,1-.1-1.415,34.558,34.558,0,0,1,4.1-3.7,1.138,1.138,0,0,1,1.521.133A.954.954,0,0,1,8.2,3.372,32.461,32.461,0,0,0,4.356,6.85a1.116,1.116,0,0,1-.814.343Z" transform="translate(-2.463 -1.596)" fill="#05297a"/>
        </g>
        <g id="f" transform="translate(4.161 14.996)">
          <path id="Path_6697" data-name="Path 6697" d="M2.325,14.6a1.164,1.164,0,0,1-.243-.026,1,1,0,0,1-.811-1.2A31.457,31.457,0,0,1,5.7,3.406,1.13,1.13,0,0,1,7.19,3.084a.962.962,0,0,1,.347,1.381A29.53,29.53,0,0,0,3.377,13.82a1.067,1.067,0,0,1-1.052.778Z" transform="translate(-1.244 -2.932)" fill="#05297a"/>
        </g>
        <g id="g" transform="translate(3.284 30.745)">
          <path id="Path_6698" data-name="Path 6698" d="M14.423,33.207a1.127,1.127,0,0,1-.7-.236A31.962,31.962,0,0,1,1.1,7.768c0-.38.007-.766.021-1.148a1.052,1.052,0,0,1,1.116-.968A1.037,1.037,0,0,1,3.284,6.688c-.013.359-.02.722-.02,1.08a30.015,30.015,0,0,0,11.855,23.67.954.954,0,0,1,.131,1.413,1.114,1.114,0,0,1-.827.357Z" transform="translate(-1.104 -5.651)" fill="#05297a"/>
        </g>
        <g id="h" transform="translate(20.938 59.733)">
          <path id="Path_6699" data-name="Path 6699" d="M21.513,16.645A37.283,37.283,0,0,1,4.488,12.561a.966.966,0,0,1-.42-1.364,1.125,1.125,0,0,1,1.469-.39,34.986,34.986,0,0,0,15.975,3.832,34.981,34.981,0,0,0,16.024-3.857,1.125,1.125,0,0,1,1.47.387.966.966,0,0,1-.417,1.364,37.279,37.279,0,0,1-17.076,4.111Z" transform="translate(-3.933 -10.656)" fill="#05297a"/>
        </g>
        <g id="i" transform="translate(59.384 14.962)">
          <path id="Path_6700" data-name="Path 6700" d="M11.175,46.24a1.114,1.114,0,0,1-.826-.356.954.954,0,0,1,.129-1.413A30.016,30.016,0,0,0,22.3,20.826,29.266,29.266,0,0,0,17.271,4.46a.962.962,0,0,1,.345-1.382A1.13,1.13,0,0,1,19.1,3.4a31.165,31.165,0,0,1,5.357,17.427A31.962,31.962,0,0,1,11.871,46a1.128,1.128,0,0,1-.7.236Z" transform="translate(-10.094 -2.927)" fill="#05297a"/>
        </g>
        <g id="j" transform="translate(58.835 7.026)">
          <path id="Path_6701" data-name="Path 6701" d="M14.647,6.647a1.118,1.118,0,0,1-.791-.32,32.633,32.633,0,0,0-3.449-2.988.955.955,0,0,1-.161-1.41,1.138,1.138,0,0,1,1.519-.149,34.739,34.739,0,0,1,3.672,3.181.953.953,0,0,1-.055,1.417,1.124,1.124,0,0,1-.736.268Z" transform="translate(-10.006 -1.556)" fill="#05297a"/>
        </g>
        <g id="k" transform="translate(21.151)">
          <path id="Path_6702" data-name="Path 6702" d="M5.048,6.2A1.1,1.1,0,0,1,4.1,5.676a.967.967,0,0,1,.43-1.361,37.549,37.549,0,0,1,33.222-.193A.968.968,0,0,1,38.2,5.478a1.123,1.123,0,0,1-1.46.416,35.24,35.24,0,0,0-31.175.181,1.142,1.142,0,0,1-.517.123Z" transform="translate(-3.967 -0.344)" fill="#05297a"/>
        </g>
        <g id="l" transform="translate(40.298 6.002)">
          <path id="Path_6703" data-name="Path 6703" d="M8.117,8.52A1.1,1.1,0,0,1,7.2,8.047a.962.962,0,0,1,.346-1.381,51.209,51.209,0,0,1,12.922-5.25,1.093,1.093,0,0,1,1.329.7,1,1,0,0,1-.754,1.233A48.959,48.959,0,0,0,8.686,8.369a1.138,1.138,0,0,1-.57.152Z" transform="translate(-7.035 -1.38)" fill="#05297a"/>
        </g>
        <g id="m" transform="translate(26.303 14.686)">
          <path id="Path_6704" data-name="Path 6704" d="M5.872,13.62a1.133,1.133,0,0,1-.621-.183.958.958,0,0,1-.261-1.4A47.666,47.666,0,0,1,13.875,3.11a1.139,1.139,0,0,1,1.521.131.954.954,0,0,1-.141,1.412,45.592,45.592,0,0,0-8.5,8.541,1.107,1.107,0,0,1-.884.425Z" transform="translate(-4.792 -2.879)" fill="#05297a"/>
        </g>
        <g id="n" transform="translate(17.398 28.669)">
          <path id="Path_6705" data-name="Path 6705" d="M4.809,33.6a1.056,1.056,0,0,1-1.071-.881A43.183,43.183,0,0,1,8.956,5.834a1.122,1.122,0,0,1,1.456-.429.969.969,0,0,1,.462,1.352A41.308,41.308,0,0,0,5.882,32.471a1.021,1.021,0,0,1-.941,1.117,1.164,1.164,0,0,1-.133.008Z" transform="translate(-3.365 -5.293)" fill="#05297a"/>
        </g>
        <g id="o" transform="translate(21.476 5.886)">
          <path id="Path_6706" data-name="Path 6706" d="M18.2,8.617a1.138,1.138,0,0,1-.57-.152A49.008,49.008,0,0,0,4.822,3.332a1,1,0,0,1-.767-1.226,1.091,1.091,0,0,1,1.321-.712,51.254,51.254,0,0,1,13.4,5.369.962.962,0,0,1,.346,1.381,1.1,1.1,0,0,1-.918.473Z" transform="translate(-4.019 -1.36)" fill="#05297a"/>
        </g>
        <g id="p" transform="translate(39.88 14.686)">
          <path id="Path_6707" data-name="Path 6707" d="M21.434,21.292a1.088,1.088,0,0,1-.988-.6A44.963,44.963,0,0,0,7.359,4.654a.954.954,0,0,1-.141-1.412A1.139,1.139,0,0,1,8.738,3.11,47,47,0,0,1,22.421,19.881a.976.976,0,0,1-.547,1.324,1.149,1.149,0,0,1-.439.087Z" transform="translate(-6.968 -2.879)" fill="#05297a"/>
        </g>
        <g id="q" transform="translate(55.535 36.838)">
          <path id="Path_6708" data-name="Path 6708" d="M11.976,14.735a1.059,1.059,0,0,1-1.067-.856A41.578,41.578,0,0,0,9.52,7.987a.994.994,0,0,1,.735-1.243,1.1,1.1,0,0,1,1.339.682,43.465,43.465,0,0,1,1.451,6.16,1.017,1.017,0,0,1-.911,1.139,1.171,1.171,0,0,1-.159.011Z" transform="translate(-9.477 -6.703)" fill="#05297a"/>
        </g>
        <g id="r" transform="translate(57.093 48.747)">
          <path id="Path_6709" data-name="Path 6709" d="M10.808,17.136a1.159,1.159,0,0,1-.136-.008,1.021,1.021,0,0,1-.937-1.12A41.48,41.48,0,0,0,10.1,9.778a1.083,1.083,0,0,1,2.16-.031,43.347,43.347,0,0,1-.386,6.512A1.056,1.056,0,0,1,10.808,17.136Z" transform="translate(-9.727 -8.759)" fill="#05297a"/>
        </g>
        <g id="s" transform="translate(6.466 25.406)">
          <path id="Path_6710" data-name="Path 6710" d="M2.693,8.249A1.067,1.067,0,0,1,1.64,7.466a1,1,0,0,1,.816-1.2A72.223,72.223,0,0,1,17.605,4.73,1.043,1.043,0,0,1,18.68,5.738a1.044,1.044,0,0,1-1.08,1h-.006A69.99,69.99,0,0,0,2.932,8.224a1.166,1.166,0,0,1-.239.025Z" transform="translate(-1.613 -4.73)" fill="#05297a"/>
        </g>
        <g id="t" transform="translate(27.917 25.742)">
          <path id="Path_6711" data-name="Path 6711" d="M29.875,13.479a1.142,1.142,0,0,1-.5-.115A68.438,68.438,0,0,0,6.018,6.788a1.024,1.024,0,0,1-.961-1.1,1.063,1.063,0,0,1,1.188-.892,70.713,70.713,0,0,1,24.132,6.794.969.969,0,0,1,.455,1.354A1.094,1.094,0,0,1,29.875,13.479Z" transform="translate(-5.051 -4.788)" fill="#05297a"/>
        </g>
        <g id="u" transform="translate(57.325 35.524)">
          <path id="Path_6712" data-name="Path 6712" d="M22.353,17.375a1.119,1.119,0,0,1-.78-.309A64.732,64.732,0,0,0,10.251,8.317a.96.96,0,0,1-.309-1.389,1.132,1.132,0,0,1,1.5-.287,66.863,66.863,0,0,1,11.7,9.038A.953.953,0,0,1,23.1,17.1a1.123,1.123,0,0,1-.747.279Z" transform="translate(-9.764 -6.476)" fill="#05297a"/>
        </g>
        <g id="v" transform="translate(56.167 15.549)">
          <path id="Path_6713" data-name="Path 6713" d="M10.658,20.754a1.138,1.138,0,0,1-.569-.151.962.962,0,0,1-.348-1.381A58.571,58.571,0,0,0,17.1,3.757a1.094,1.094,0,0,1,1.334-.691A1,1,0,0,1,19.18,4.3a60.506,60.506,0,0,1-7.6,15.976,1.1,1.1,0,0,1-.919.474Z" transform="translate(-9.578 -3.028)" fill="#05297a"/>
        </g>
        <g id="w" transform="translate(21.371 36.28)">
          <path id="Path_6714" data-name="Path 6714" d="M5.083,29.41a1.079,1.079,0,0,1-1.021-.676.987.987,0,0,1,.669-1.275A67.064,67.064,0,0,0,21.645,19.3,63.693,63.693,0,0,0,35.287,7,1.137,1.137,0,0,1,36.8,6.814.956.956,0,0,1,37,8.22,65.789,65.789,0,0,1,22.91,20.926,69.287,69.287,0,0,1,5.435,29.355a1.156,1.156,0,0,1-.352.055Z" transform="translate(-4.002 -6.607)" fill="#05297a"/>
        </g>
        <g id="x" transform="translate(34.153 9.577)">
          <path id="Path_6715" data-name="Path 6715" d="M10.415,10.13A4.228,4.228,0,0,1,6.05,6.063,4.228,4.228,0,0,1,10.415,2,4.228,4.228,0,0,1,14.78,6.063,4.229,4.229,0,0,1,10.415,10.13Zm0-6.127a2.138,2.138,0,0,0-2.2,2.061,2.139,2.139,0,0,0,2.2,2.061,2.139,2.139,0,0,0,2.2-2.061A2.138,2.138,0,0,0,10.415,4Z" transform="translate(-6.05 -1.997)" fill="#05297a"/>
        </g>
        <g id="y" transform="translate(21.372 23.038)">
          <path id="Path_6716" data-name="Path 6716" d="M8.367,12.454A4.228,4.228,0,0,1,4,8.387,4.228,4.228,0,0,1,8.367,4.321a4.228,4.228,0,0,1,4.365,4.067A4.228,4.228,0,0,1,8.367,12.454Zm0-6.128a2.139,2.139,0,0,0-2.2,2.061,2.139,2.139,0,0,0,2.2,2.061,2.139,2.139,0,0,0,2.2-2.061A2.138,2.138,0,0,0,8.367,6.326Z" transform="translate(-4.002 -4.321)" fill="#05297a"/>
        </g>
        <g id="z" transform="translate(51.243 30.858)">
          <path id="Path_6717" data-name="Path 6717" d="M13.154,13.8A4.228,4.228,0,0,1,8.789,9.737a4.228,4.228,0,0,1,4.365-4.067,4.228,4.228,0,0,1,4.365,4.067A4.228,4.228,0,0,1,13.154,13.8Zm0-6.128a2.139,2.139,0,0,0-2.2,2.061,2.139,2.139,0,0,0,2.2,2.061,2.139,2.139,0,0,0,2.2-2.061A2.139,2.139,0,0,0,13.154,7.677Z" transform="translate(-8.789 -5.671)" fill="#05297a"/>
        </g>
        <g id="aa" transform="translate(14.97 54.932)">
          <path id="Path_6718" data-name="Path 6718" d="M7.341,17.96a4.228,4.228,0,0,1-4.365-4.067A4.228,4.228,0,0,1,7.341,9.827a4.229,4.229,0,0,1,4.365,4.067A4.229,4.229,0,0,1,7.341,17.96Zm0-6.128a2.138,2.138,0,0,0-2.2,2.061,2.138,2.138,0,0,0,2.2,2.061,2.139,2.139,0,0,0,2.2-2.061,2.139,2.139,0,0,0-2.2-2.061Z" transform="translate(-2.976 -9.827)" fill="#05297a"/>
        </g>
        <g id="ab" transform="translate(53.526 55.106)">
          <path id="Path_6719" data-name="Path 6719" d="M13.52,17.99a4.228,4.228,0,0,1-4.365-4.067A4.228,4.228,0,0,1,13.52,9.857a4.229,4.229,0,0,1,4.365,4.067A4.229,4.229,0,0,1,13.52,17.99Zm0-6.128a2.139,2.139,0,0,0-2.2,2.061,2.209,2.209,0,0,0,4.408,0A2.139,2.139,0,0,0,13.52,11.863Z" transform="translate(-9.155 -9.857)" fill="#05297a"/>
        </g>
        <g id="ac" transform="translate(61.184 9.421)">
          <path id="Path_6720" data-name="Path 6720" d="M14.747,10.1a4.229,4.229,0,0,1-4.365-4.067A4.229,4.229,0,0,1,14.747,1.97a4.228,4.228,0,0,1,4.365,4.067A4.228,4.228,0,0,1,14.747,10.1Zm0-6.128a2.139,2.139,0,0,0-2.2,2.061,2.209,2.209,0,0,0,4.408,0A2.139,2.139,0,0,0,14.747,3.976Z" transform="translate(-10.382 -1.97)" fill="#05297a"/>
        </g>
        <g id="ad" transform="translate(52.846 2.227)">
          <path id="Path_6721" data-name="Path 6721" d="M13.411,8.861A4.228,4.228,0,0,1,9.046,4.794,4.228,4.228,0,0,1,13.411.728a4.228,4.228,0,0,1,4.365,4.066A4.229,4.229,0,0,1,13.411,8.861Zm0-6.127a2.139,2.139,0,0,0-2.2,2.061,2.209,2.209,0,0,0,4.408,0A2.138,2.138,0,0,0,13.411,2.734Z" transform="translate(-9.046 -0.728)" fill="#05297a"/>
        </g>
        <g id="ae" transform="translate(14.97 2.227)">
          <path id="Path_6722" data-name="Path 6722" d="M7.341,8.861A4.228,4.228,0,0,1,2.976,4.794,4.228,4.228,0,0,1,7.341.728a4.229,4.229,0,0,1,4.365,4.066A4.229,4.229,0,0,1,7.341,8.861Zm0-6.127a2.138,2.138,0,0,0-2.2,2.061,2.139,2.139,0,0,0,2.2,2.061,2.139,2.139,0,0,0,2.2-2.061,2.139,2.139,0,0,0-2.2-2.061Z" transform="translate(-2.976 -0.728)" fill="#05297a"/>
        </g>
        <g id="af" transform="translate(0 24.617)">
          <path id="Path_6723" data-name="Path 6723" d="M4.942,12.726A4.228,4.228,0,0,1,.577,8.66,4.228,4.228,0,0,1,4.942,4.593,4.228,4.228,0,0,1,9.307,8.66,4.229,4.229,0,0,1,4.942,12.726Zm0-6.127a2.138,2.138,0,0,0-2.2,2.061,2.139,2.139,0,0,0,2.2,2.061,2.139,2.139,0,0,0,2.2-2.061A2.138,2.138,0,0,0,4.942,6.6Z" transform="translate(-0.577 -4.593)" fill="#05297a"/>
        </g>
      </g>
    </g>
  </g>
</svg>
