<svg xmlns="http://www.w3.org/2000/svg" width="65.5" height="65.503" viewBox="0 0 65.5 65.503">
  <g id="icono_LEG_02" data-name="icono/LEG 02" transform="translate(-15.933 -15.907)">
    <path id="Path_6724" data-name="Path 6724" d="M241.2,37.071l2.914,17.541,25.727-4.9L267.123,33.12Z" transform="translate(-194.532 -14.864)" fill="none"/>
    <path id="Path_6725" data-name="Path 6725" d="M312.492,213.328c3.558-2.3,6.047-5.687,6.047-8.23V194.183a2.183,2.183,0,0,0-4.366,0v6.549c0,4.857-1.3,9.824-10.915,9.824a20.517,20.517,0,0,0-10.229,3.275h19.045A1.09,1.09,0,0,1,312.492,213.328Z" transform="translate(-239.289 -152.067)" fill="none"/>
    <path id="Path_6726" data-name="Path 6726" d="M122.321,116.048h-.207a1.1,1.1,0,0,1-1.092-.917l-2.249-13.611-17.813,2.947,9.147,6.265a1.072,1.072,0,0,1,.273,1.539l-6.494,8.863,22.234-3.667-.36-2.074Z" transform="translate(-73.426 -73.932)" fill="none"/>
    <circle id="Ellipse_9" data-name="Ellipse 9" cx="4.366" cy="4.366" r="4.366" transform="translate(59.602 43.208)" fill="none"/>
    <path id="Path_6727" data-name="Path 6727" d="M200.732,292.366a4.366,4.366,0,1,0-4.366,4.366A4.366,4.366,0,0,0,200.732,292.366Zm-6.549,0a2.183,2.183,0,1,1,2.183,2.183A2.183,2.183,0,0,1,194.183,292.366Z" transform="translate(-152.045 -234.969)" fill="#05297a"/>
    <path id="Path_6728" data-name="Path 6728" d="M128.732,308.366a4.366,4.366,0,1,0-4.366,4.366A4.366,4.366,0,0,0,128.732,308.366Zm-6.549,0a2.183,2.183,0,1,1,2.183,2.183A2.183,2.183,0,0,1,122.183,308.366Z" transform="translate(-89.868 -248.786)" fill="#05297a"/>
    <path id="Path_6729" data-name="Path 6729" d="M52.366,328.732A4.366,4.366,0,1,0,48,324.366,4.366,4.366,0,0,0,52.366,328.732Zm0-6.549a2.183,2.183,0,1,1-2.183,2.183A2.183,2.183,0,0,1,52.366,322.183Z" transform="translate(-27.692 -262.603)" fill="#05297a"/>
    <path id="Path_6730" data-name="Path 6730" d="M333.1,206.549a6.549,6.549,0,1,0-6.549,6.549A6.549,6.549,0,0,0,333.1,206.549Zm-10.915,0a4.366,4.366,0,1,1,4.366,4.366A4.366,4.366,0,0,1,322.183,206.549Z" transform="translate(-262.581 -158.975)" fill="#05297a"/>
    <path id="Path_6731" data-name="Path 6731" d="M37.772,383.267v-6.549a6.724,6.724,0,0,1,1.2-4.039,6.473,6.473,0,0,1,5.348-2.51,6.778,6.778,0,0,1,4.361,1.5v-2.658a9.321,9.321,0,0,0-4.361-1.028,8.732,8.732,0,0,0-6.549,2.74,9.443,9.443,0,0,0-3.275-.557,8.732,8.732,0,0,0-6.549,2.74,9.441,9.441,0,0,0-3.275-.557,8.35,8.35,0,0,0-8.732,7.95q-.018.391,0,.782v3.275a1.091,1.091,0,0,0,1.092,1.091H48.683v-2.183ZM25.766,378.9v4.366H18.125v-2.183a6.211,6.211,0,0,1,6.549-6.549,7.8,7.8,0,0,1,1.987.262A9.354,9.354,0,0,0,25.766,378.9Zm9.824-2.183v6.549H27.949V378.9a6.724,6.724,0,0,1,1.2-4.039,6.473,6.473,0,0,1,5.348-2.51,7.794,7.794,0,0,1,1.987.262A9.354,9.354,0,0,0,35.589,376.718Z" transform="translate(0 -304.04)" fill="#05297a"/>
    <path id="Path_6732" data-name="Path 6732" d="M112.431,58.489c9.616,0,10.915-4.966,10.915-9.824V42.116a2.183,2.183,0,0,1,4.366,0V53.031c0,2.543-2.489,5.927-6.047,8.23a1.091,1.091,0,0,0-.419.5h3.433c3.184-2.608,5.215-5.92,5.215-8.732V42.116a4.366,4.366,0,0,0-3.416-4.257l-3.449-21.022a1.092,1.092,0,0,0-1.242-.917h0l-28.074,4.29a1.076,1.076,0,0,0-.906,1.255l.655,3.962-20.5,3.395a1.092,1.092,0,0,0-.437,1.976l10.435,7.16L75.548,48.065a1.092,1.092,0,0,0,.862,1.692h.175l26.022-4.246a1.076,1.076,0,0,0,.9-1.266l-.568-3.22L124.121,37l.153.95a4.366,4.366,0,0,0-3.111,4.17v6.549c0,4.835-1.43,7.641-8.8,7.641-5.885.365-10.855,2.53-13.394,5.458h3.23A20.517,20.517,0,0,1,112.431,58.489ZM78.921,47.2l6.494-8.863a1.072,1.072,0,0,0-.273-1.539L76,30.535l17.813-2.947L96.058,41.2a1.1,1.1,0,0,0,1.092.917h.207l3.438-.655.36,2.074Zm19.123-7.455L95.13,22.207l25.923-3.951,2.718,16.591Z" transform="translate(-48.462 0)" fill="#05297a"/>
    <path id="Path_6733" data-name="Path 6733" d="M255.966,355.211l.125.064a7.222,7.222,0,0,1,1.7-3.275" transform="translate(-207.284 -290.237)" fill="#05297a"/>
    <path id="Path_6734" data-name="Path 6734" d="M264.7,367.173h0v-.317c6.134-3.056,13.928-5.032,16.373-5.032a1.092,1.092,0,0,0,1.092-1.092V353c.464-.32.909-.656,1.334-1h-3.433a1.09,1.09,0,0,0-.084.415v7.226a55.141,55.141,0,0,0-15.281,4.748v-8.023H262.52v10.806a2.183,2.183,0,1,1-4.366,0V356.366c0-1.564,1.083-3.09,2.869-4.366h-3.23a7.222,7.222,0,0,0-1.7,3.275l-.125-.064v2.658l0,0v9.3a4.541,4.541,0,0,0,.633,2.292h-.638v2.183h4.371A4.421,4.421,0,0,0,264.7,367.173Z" transform="translate(-207.284 -290.237)" fill="#05297a"/>
  </g>
</svg>
