<svg xmlns="http://www.w3.org/2000/svg" width="69.392" height="69.392" viewBox="0 0 69.392 69.392">
  <g id="icon_LEG_03" data-name="icon/ LEG 03" transform="translate(-8.215 -8)">
    <path id="Path_6663" data-name="Path 6663" d="M164.757,264.455a8.954,8.954,0,1,0-9.746,0,15.689,15.689,0,0,0-10.8,14.884v4.477h31.338v-4.477A15.689,15.689,0,0,0,164.757,264.455Zm1.379,12.645-4.477,4.477h-.226l4.668-14.133a13.481,13.481,0,0,1,2.253,1.483l-.535,3.031-4.1,2.73Zm-14.186-5.143-.535-3.031a13.48,13.48,0,0,1,2.253-1.483l4.668,14.134h-.226l-4.477-4.477,2.413-2.412Zm1.219-15a6.715,6.715,0,1,1,6.715,6.715A6.722,6.722,0,0,1,153.169,256.954Zm10.863,9.616-4.148,12.557-4.147-12.557a13.311,13.311,0,0,1,8.295,0Zm-17.579,12.768a13.367,13.367,0,0,1,3.029-8.482l.429,2.432,2.62,1.747-2.064,2.064,4.477,4.477h-8.49Zm26.861,2.238h-8.49L169.3,277.1l-2.064-2.065,2.62-1.747.429-2.432a13.372,13.372,0,0,1,3.029,8.483Z" transform="translate(-116.973 -206.423)" fill="#05297a"/>
    <path id="Path_6664" data-name="Path 6664" d="M182.712,47.575H193.9V34.144h5.45L188.308,17.576,177.263,34.144h5.45Zm-1.266-15.669,6.862-10.294,6.862,10.294h-3.5V45.336h-6.715V31.905Z" transform="translate(-145.398 -8.236)" fill="#05297a"/>
    <path id="Path_6665" data-name="Path 6665" d="M22.015,117.8l3.86,19.3,3.793-3.793,9.52,9.9,8.235-8.235-9.9-9.52,3.793-3.793Zm22.213,17.206-5.007,5.007-9.52-9.9-2.45,2.449-2.382-11.909,11.91,2.382-2.449,2.45Z" transform="translate(-11.869 -94.439)" fill="#05297a"/>
    <path id="Path_6666" data-name="Path 6666" d="M308.791,134.975l8.235,8.235,9.52-9.9,3.793,3.793,3.86-19.3-19.3,3.86,3.793,3.793Zm22.556-14.321-2.382,11.91-2.45-2.449-9.52,9.9-5.007-5.007,9.9-9.52-2.449-2.45Z" transform="translate(-258.524 -94.439)" fill="#05297a"/>
    <path id="Path_6667" data-name="Path 6667" d="M11.572,14.715a3.358,3.358,0,1,0-3.358-3.358A3.362,3.362,0,0,0,11.572,14.715Zm0-4.477a1.119,1.119,0,1,1-1.119,1.119A1.121,1.121,0,0,1,11.572,10.238Z" fill="#05297a"/>
    <path id="Path_6668" data-name="Path 6668" d="M95.79,97.183,97.372,95.6l1.5,1.5-1.583,1.583Z" transform="translate(-75.323 -75.345)" fill="#05297a"/>
    <path id="Path_6669" data-name="Path 6669" d="M50.548,51.927l1.583-1.583,1.583,1.583-1.583,1.583Z" transform="translate(-36.411 -36.42)" fill="#05297a"/>
    <path id="Path_6670" data-name="Path 6670" d="M73.174,74.559l1.583-1.583,1.583,1.583-1.583,1.583Z" transform="translate(-55.871 -55.886)" fill="#05297a"/>
    <path id="Path_6671" data-name="Path 6671" d="M11.572,456a3.358,3.358,0,1,0,3.358,3.358A3.362,3.362,0,0,0,11.572,456Zm0,4.477a1.119,1.119,0,1,1,1.119-1.119A1.121,1.121,0,0,1,11.572,460.477Z" transform="translate(0 -385.323)" fill="#05297a"/>
    <path id="Path_6672" data-name="Path 6672" d="M95.759,395.814l1.5-1.5,1.583,1.583-1.5,1.5Z" transform="translate(-75.297 -332.265)" fill="#05297a"/>
    <path id="Path_6673" data-name="Path 6673" d="M50.5,440.577l1.583-1.583,1.583,1.583-1.583,1.583Z" transform="translate(-36.372 -370.697)" fill="#05297a"/>
    <path id="Path_6674" data-name="Path 6674" d="M73.135,417.943l1.583-1.583,1.583,1.583-1.583,1.583Z" transform="translate(-55.837 -351.23)" fill="#05297a"/>
    <path id="Path_6675" data-name="Path 6675" d="M459.572,456a3.358,3.358,0,1,0,3.358,3.358A3.362,3.362,0,0,0,459.572,456Zm0,4.477a1.119,1.119,0,1,1,1.119-1.119A1.121,1.121,0,0,1,459.572,460.477Z" transform="translate(-385.323 -385.323)" fill="#05297a"/>
    <path id="Path_6676" data-name="Path 6676" d="M439.153,440.615l1.583-1.583,1.583,1.583-1.583,1.583Z" transform="translate(-370.649 -370.729)" fill="#05297a"/>
    <path id="Path_6677" data-name="Path 6677" d="M394.475,395.929l1.583-1.583,1.5,1.5-1.583,1.583Z" transform="translate(-332.221 -332.296)" fill="#05297a"/>
    <path id="Path_6678" data-name="Path 6678" d="M416.52,417.983,418.1,416.4l1.583,1.583-1.583,1.583Z" transform="translate(-351.181 -351.263)" fill="#05297a"/>
    <path id="Path_6679" data-name="Path 6679" d="M459.572,14.715a3.358,3.358,0,1,0-3.358-3.358A3.362,3.362,0,0,0,459.572,14.715Zm0-4.477a1.119,1.119,0,1,1-1.119,1.119A1.121,1.121,0,0,1,459.572,10.238Z" transform="translate(-385.323)" fill="#05297a"/>
    <path id="Path_6680" data-name="Path 6680" d="M416.567,74.6l1.583-1.583,1.583,1.583-1.583,1.583Z" transform="translate(-351.222 -55.919)" fill="#05297a"/>
    <path id="Path_6681" data-name="Path 6681" d="M439.191,51.972l1.583-1.583,1.583,1.583-1.583,1.583Z" transform="translate(-370.681 -36.459)" fill="#05297a"/>
    <path id="Path_6682" data-name="Path 6682" d="M394.506,97.129l1.5-1.5,1.583,1.583-1.5,1.5Z" transform="translate(-332.247 -75.366)" fill="#05297a"/>
    <path id="Path_6683" data-name="Path 6683" d="M459.572,304a3.358,3.358,0,1,0,3.358,3.358A3.362,3.362,0,0,0,459.572,304Zm0,4.477a1.119,1.119,0,1,1,1.119-1.119A1.121,1.121,0,0,1,459.572,308.477Z" transform="translate(-385.323 -254.589)" fill="#05297a"/>
    <path id="Path_6684" data-name="Path 6684" d="M424.215,320h2.238v2.238h-2.238Z" transform="translate(-357.8 -268.35)" fill="#05297a"/>
    <path id="Path_6685" data-name="Path 6685" d="M360.215,320h2.238v2.238h-2.238Z" transform="translate(-302.754 -268.35)" fill="#05297a"/>
    <path id="Path_6686" data-name="Path 6686" d="M392.215,320h2.238v2.238h-2.238Z" transform="translate(-330.277 -268.35)" fill="#05297a"/>
    <path id="Path_6687" data-name="Path 6687" d="M11.572,310.715a3.358,3.358,0,1,0-3.358-3.358A3.362,3.362,0,0,0,11.572,310.715Zm0-4.477a1.119,1.119,0,1,1-1.119,1.119A1.121,1.121,0,0,1,11.572,306.238Z" transform="translate(0 -254.589)" fill="#05297a"/>
    <path id="Path_6688" data-name="Path 6688" d="M104.215,320h2.238v2.238h-2.238Z" transform="translate(-82.569 -268.35)" fill="#05297a"/>
    <path id="Path_6689" data-name="Path 6689" d="M72.215,320h2.238v2.238H72.215Z" transform="translate(-55.046 -268.35)" fill="#05297a"/>
    <path id="Path_6690" data-name="Path 6690" d="M136.215,320h2.238v2.238h-2.238Z" transform="translate(-110.092 -268.35)" fill="#05297a"/>
  </g>
</svg>
