<svg width="70" height="70" viewBox="0 0 53 53" fill="none" xmlns="http://www.w3.org/2000/svg">
<path d="M13.1042 34.7939C18.3777 34.7939 22.6528 30.5189 22.6528 25.2454C22.6528 19.9718 18.3777 15.6968 13.1042 15.6968C7.83064 15.6968 3.55566 19.9718 3.55566 25.2454C3.55566 30.5189 7.83064 34.7939 13.1042 34.7939Z" fill="#F0D224"/>
<path d="M28.8087 30.3878C31.6562 30.3878 33.9645 28.0795 33.9645 25.232C33.9645 22.3845 31.6562 20.0762 28.8087 20.0762C25.9612 20.0762 23.6528 22.3845 23.6528 25.232C23.6528 28.0795 25.9612 30.3878 28.8087 30.3878Z" fill="#F0D224"/>
<path d="M41.7058 30.2762C44.5165 29.8199 46.4251 27.1716 45.9689 24.3609C45.5126 21.5502 42.8643 19.6415 40.0536 20.0977C37.2429 20.554 35.3342 23.2024 35.7905 26.0131C36.2467 28.8238 38.8951 30.7324 41.7058 30.2762Z" fill="#F0D224"/>
</svg>
